<svg xmlns="http://www.w3.org/2000/svg" width="136.076" height="136.076" viewBox="0 0 136.076 136.076">
  <g id="_252769950_4e532cc4-42b1-4a71-b0f6-fe72747b907a" data-name="252769950_4e532cc4-42b1-4a71-b0f6-fe72747b907a" transform="translate(-5.8 -5.728)">
    <path id="Path_1273865" data-name="Path 1273865" d="M68.038,0A68.038,68.038,0,1,1,0,68.038,68.038,68.038,0,0,1,68.038,0Z" transform="translate(5.8 5.728)" fill="#fa840e"/>
    <g id="Layer_x5F_1" transform="translate(32.322 32.314)">
      <g id="_680590040">
        <path id="_680591144" d="M172.846,201.692a28.846,28.846,0,1,1,14.48-53.782,1.307,1.307,0,1,1-1.3,2.267,26.27,26.27,0,1,0,9.691,9.833,1.288,1.288,0,1,1,2.239-1.275,28.99,28.99,0,0,1,3.684,14.14,28.782,28.782,0,0,1-28.789,28.818Z" transform="translate(-131.362 -131.362)" fill="#010202" fill-rule="evenodd"/>
        <path id="_680591168" d="M140.884,182.368a41.484,41.484,0,0,1,0-82.968,41.58,41.58,0,0,1,26.692,9.719,1.288,1.288,0,0,1-1.643,1.984,38.927,38.927,0,1,0,4.76,4.76,1.288,1.288,0,1,1,1.984-1.643,41.58,41.58,0,0,1,9.719,26.692,41.455,41.455,0,0,1-41.512,41.455Z" transform="translate(-99.4 -99.4)" fill="#010202" fill-rule="evenodd"/>
        <path id="_680591336" d="M193.7,214.3a20.6,20.6,0,1,1,0-41.2,20.177,20.177,0,0,1,7.764,1.53,1.308,1.308,0,0,1-.482,2.522h0a1.324,1.324,0,0,1-.482-.085,18.059,18.059,0,1,0,9.691,9.493,1.295,1.295,0,1,1,2.38-1.02A20.572,20.572,0,0,1,193.7,214.3Z" transform="translate(-152.216 -152.216)" fill="#010202" fill-rule="evenodd"/>
        <path id="_680591720" d="M144.989,146.292a1.24,1.24,0,0,1-.907-.368l-14.65-14.65a1.3,1.3,0,0,1,1.842-1.842l14.65,14.65a1.3,1.3,0,0,1,0,1.842,1.436,1.436,0,0,1-.935.368Z" transform="translate(-120.648 -120.648)" fill="#010202" fill-rule="evenodd"/>
        <path id="_680591480" d="M130.339,318.892a1.24,1.24,0,0,1-.907-.368,1.3,1.3,0,0,1,0-1.842l14.65-14.65a1.3,1.3,0,0,1,1.842,1.842l-14.65,14.65a1.436,1.436,0,0,1-.935.368Z" transform="translate(-120.648 -244.341)" fill="#010202" fill-rule="evenodd"/>
        <path id="_680591576" d="M317.589,318.821a1.24,1.24,0,0,1-.907-.368l-14.65-14.678a1.3,1.3,0,0,1,1.842-1.842l14.65,14.65a1.3,1.3,0,0,1,0,1.842,1.386,1.386,0,0,1-.935.4Z" transform="translate(-244.341 -244.269)" fill="#010202" fill-rule="evenodd"/>
        <path id="_680591696" d="M251.539,175.763a1.24,1.24,0,0,1-.907-.368,1.3,1.3,0,0,1,0-1.842l23.32-23.32a1.3,1.3,0,0,1,1.842,1.842l-23.349,23.32a1.24,1.24,0,0,1-.907.368Z" transform="translate(-207.505 -135.555)" fill="#010202" fill-rule="evenodd"/>
        <path id="_680591528" d="M341.156,118.652H333.7a1.3,1.3,0,0,1-1.3-1.3V109.9a1.311,1.311,0,0,1,.368-.907l5.951-5.951a1.312,1.312,0,0,1,1.417-.283,1.3,1.3,0,0,1,.793,1.19v6.149h6.149a1.267,1.267,0,0,1,1.19.793,1.312,1.312,0,0,1-.283,1.417l-5.951,5.951a1.119,1.119,0,0,1-.878.4Zm-6.149-2.607h5.611l3.372-3.372h-4.307a1.3,1.3,0,0,1-1.3-1.3v-4.307l-3.372,3.372v5.611Z" transform="translate(-266.377 -101.736)" fill="#010202" fill-rule="evenodd"/>
        <path id="_680590328" d="M227.839,231.784a1.311,1.311,0,0,1-.907-.368,1.279,1.279,0,0,1-.34-1.247l2.834-10.569a1.276,1.276,0,0,1,.907-.907,1.262,1.262,0,0,1,1.247.34l7.736,7.736a1.282,1.282,0,0,1-.567,2.154l-10.569,2.834c-.113,0-.227.028-.34.028Zm3.514-9.379-1.672,6.234,6.234-1.672Z" transform="translate(-190.521 -184.859)" fill="#010202" fill-rule="evenodd"/>
        <path id="_680590712" d="M241.51,234.239,239.272,232l-1.672,6.234,6.234-1.672-2.239-2.239-.028-.028c-.028-.057-.028-.057-.057-.057Z" transform="translate(-198.44 -194.427)" fill="#c4ced3" fill-rule="evenodd"/>
        <path id="_680590832" d="M198.046,320.9a28.827,28.827,0,0,1-38.934,0L152,328.012a38.933,38.933,0,0,0,53.158,0Z" transform="translate(-137.095 -258.136)" fill="#8ac9bc" fill-rule="evenodd"/>
        <path id="_680590304" d="M207.022,183.532a18.034,18.034,0,1,0,9.719,9.493,1.283,1.283,0,0,1,.312-1.473c.113-1.247-.85-2.749-2.154-4.165l-10.286,10.286,2.947,2.947a1.282,1.282,0,0,1-.567,2.154l-10.569,2.834a1.421,1.421,0,0,1-.34.057,1.311,1.311,0,0,1-.907-.368,1.279,1.279,0,0,1-.34-1.247l2.834-10.569a1.276,1.276,0,0,1,.907-.907,1.262,1.262,0,0,1,1.247.34l2.947,2.947L213.03,185.6a43.961,43.961,0,0,0-4.194-3.23,1.3,1.3,0,0,1-1.3,1.3h-.17c-.142-.057-.227-.085-.34-.142Z" transform="translate(-158.738 -158.738)" fill="#8ac9bc" fill-rule="evenodd"/>
        <path id="_680590448" d="M179.439,158.839a20.177,20.177,0,0,1,7.764,1.53,1.3,1.3,0,0,1,.822,1.218,40.226,40.226,0,0,1,4.194,3.23l5.639-5.639c-1.842-1.615-3.542-2.805-3.542-2.805a1.289,1.289,0,0,1-1.7.368,26.256,26.256,0,0,0-30.8,3.259l1.417,1.417a1.3,1.3,0,0,1,0,1.842,1.286,1.286,0,0,1-.907.368,1.24,1.24,0,0,1-.907-.368L160,161.842a26.239,26.239,0,0,0,0,35.25l1.417-1.417a1.3,1.3,0,1,1,1.842,1.842l-1.417,1.417a26.239,26.239,0,0,0,35.25,0l-1.417-1.417a1.3,1.3,0,0,1,1.842-1.842l1.417,1.417a26.234,26.234,0,0,0,3.429-30.49,1.328,1.328,0,0,1,.227-1.587c-.227-1.19-1.388-2.664-2.777-4.08l-5.667,5.667c1.3,1.417,2.267,2.919,2.154,4.165a2.358,2.358,0,0,1,.34-.227,1.277,1.277,0,0,1,1.7.68,20.619,20.619,0,0,1-18.9,28.818,20.6,20.6,0,1,1,0-41.2Z" transform="translate(-137.955 -137.955)" fill="#f2f9f7" fill-rule="evenodd"/>
        <path id="_680590760" d="M178.579,118.531a28.749,28.749,0,0,1,14.48,3.91,1.33,1.33,0,0,1,.482,1.785c-.028.028-.028.057-.057.085,0,0,1.7,1.19,3.542,2.805L203.146,121v-3.769A38.937,38.937,0,0,0,152,118.984l7.112,7.112a28.674,28.674,0,0,1,19.467-7.566Z" transform="translate(-137.095 -105.921)" fill="#8ac9bc" fill-rule="evenodd"/>
        <path id="_680590736" d="M341.6,123.612v3.57h5.611l3.372-3.372h-4.307a1.3,1.3,0,0,1-1.3-1.3V118.2l-3.372,3.372v2.04Z" transform="translate(-272.97 -112.873)" fill="#ffae06" fill-rule="evenodd"/>
        <path id="_680590256" d="M327.333,159.1h-3.769l-6.064,6.064c1.388,1.388,2.55,2.89,2.777,4.08a1.557,1.557,0,0,1,.255-.2,1.29,1.29,0,0,1,1.757.482,28.99,28.99,0,0,1,3.684,14.14,28.54,28.54,0,0,1-7.566,19.467l7.112,7.112a39.03,39.03,0,0,0,1.814-51.146Z" transform="translate(-255.699 -142.183)" fill="#8ac9bc" fill-rule="evenodd"/>
        <path id="_680589920" d="M118.531,178.579a28.54,28.54,0,0,1,7.566-19.467L118.984,152a38.933,38.933,0,0,0,0,53.158l7.112-7.112A28.779,28.779,0,0,1,118.531,178.579Z" transform="translate(-105.921 -137.095)" fill="#8ac9bc" fill-rule="evenodd"/>
      </g>
    </g>
  </g>
</svg>
