<svg xmlns="http://www.w3.org/2000/svg" width="82.001" height="82" viewBox="0 0 82.001 82">
  <g id="Group_1200402" data-name="Group 1200402" transform="translate(0)">
    <g id="Group_1187152" data-name="Group 1187152" transform="translate(0 0)">
      <g id="Group_1185946" data-name="Group 1185946" transform="translate(0)">
        <g id="Group_1184280" data-name="Group 1184280" transform="translate(0)">
          <g id="Group_1182168" data-name="Group 1182168" transform="translate(0)">
            <g id="Group_1178877" data-name="Group 1178877" transform="translate(0)">
              <g id="Group_1111311" data-name="Group 1111311" transform="translate(0)">
                <g id="Group_1098742" data-name="Group 1098742" transform="translate(0)">
                  <g id="Rectangle_400898" data-name="Rectangle 400898" transform="translate(0)" fill="#fff" stroke="#fa840e" stroke-width="1" opacity="0.859">
                    <rect width="82.001" height="82.001" rx="41" stroke="none"/>
                    <rect x="0.5" y="0.5" width="81.001" height="81.001" rx="40.5" fill="none"/>
                  </g>
                  <g id="Rectangle_400907" data-name="Rectangle 400907" transform="translate(0)" fill="none" stroke="#fa840e" stroke-width="1">
                    <rect width="82.001" height="82.001" rx="41" stroke="none"/>
                    <rect x="0.5" y="0.5" width="81.001" height="81.001" rx="40.5" fill="none"/>
                  </g>
                </g>
              </g>
            </g>
          </g>
        </g>
      </g>
    </g>
    <g id="participant_18465578" transform="translate(-17.729 2.571)">
      <path id="Path_1049577" data-name="Path 1049577" d="M412.393,342.972a2.841,2.841,0,1,1,2.839-2.843A2.845,2.845,0,0,1,412.393,342.972Z" transform="translate(-331.308 -288.798)" fill="#45dea6"/>
      <path id="Path_1049578" data-name="Path 1049578" d="M273.143,289.172H259.584l-.014-.014v-3.21c0-1.946,1.876-3.528,4.183-3.528h5.219c2.3,0,4.18,1.582,4.18,3.528v3.213Z" transform="translate(-199.851 -240.705)" fill="#ffe177"/>
      <path id="Path_1049579" data-name="Path 1049579" d="M412.393,134a2.841,2.841,0,1,1,2.839-2.843A2.845,2.845,0,0,1,412.393,134Z" transform="translate(-331.308 -105.636)" fill="#ffe177"/>
      <path id="Path_1049580" data-name="Path 1049580" d="M147.134,289.172H133.571l-.011-.014v-3.21c0-1.946,1.876-3.528,4.183-3.528h5.219c2.3,0,4.18,1.582,4.18,3.528v3.213Z" transform="translate(-89.403 -240.705)" fill="#45dea6"/>
      <path id="Path_1049581" data-name="Path 1049581" d="M50.4,134a2.841,2.841,0,1,1,2.839-2.843A2.845,2.845,0,0,1,50.4,134Z" transform="translate(-14.024 -105.636)" fill="#a69aa6"/>
      <path id="Path_1049582" data-name="Path 1049582" d="M50.4,342.972a2.841,2.841,0,1,1,2.839-2.843A2.845,2.845,0,0,1,50.4,342.972Z" transform="translate(-14.024 -288.798)" fill="#c76d33"/>
      <path id="Path_1049583" data-name="Path 1049583" d="M231.4,29.482a2.841,2.841,0,1,1,2.839-2.843A2.845,2.845,0,0,1,231.4,29.482Z" transform="translate(-172.671 -14.024)" fill="#6ac8eb"/>
      <path id="Path_1049584" data-name="Path 1049584" d="M225.863,127.2a3.62,3.62,0,1,1,3.62-3.62A3.623,3.623,0,0,1,225.863,127.2Z" transform="translate(-167.131 -98.308)" fill="#ffddcf"/>
      <path id="Path_1049585" data-name="Path 1049585" d="M288.87,215.02a3.62,3.62,0,1,1,3.62-3.62A3.624,3.624,0,0,1,288.87,215.02Z" transform="translate(-222.359 -175.283)" fill="#ffddcf"/>
      <path id="Path_1049586" data-name="Path 1049586" d="M231.4,447.482a2.841,2.841,0,1,1,2.839-2.839A2.844,2.844,0,0,1,231.4,447.482Z" transform="translate(-172.671 -380.401)" fill="#f85647"/>
      <path id="Path_1049587" data-name="Path 1049587" d="M162.87,215.02a3.62,3.62,0,1,1,3.62-3.62A3.624,3.624,0,0,1,162.87,215.02Z" transform="translate(-111.92 -175.283)" fill="#ffddcf"/>
      <path id="Path_1049588" data-name="Path 1049588" d="M219.977,201.353H215.2a5.592,5.592,0,0,0-2.4-6.232,4.694,4.694,0,0,1,2.181-.521H220.2a4.69,4.69,0,0,1,2.177.521,5.592,5.592,0,0,0-2.4,6.232Z" transform="translate(-158.857 -163.73)" fill="#6ac8eb"/>
      <g id="Group_1188286" data-name="Group 1188286" transform="translate(31.56 7.8)">
        <path id="Path_1049589" data-name="Path 1049589" d="M58.732,69.059a4.827,4.827,0,0,1-4.82-4.816,4.442,4.442,0,0,1,.032-.55L39.248,55.2a4.818,4.818,0,1,1-4.324-8.465V30.12a4.819,4.819,0,1,1,5.045-7.806l14.184-8.192a4.818,4.818,0,1,1,9.395-1.505,4.73,4.73,0,0,1-.242,1.505l14.189,8.192a4.817,4.817,0,1,1,5.041,7.806V46.738a4.818,4.818,0,1,1-4.32,8.465l-14.7,8.489a4.692,4.692,0,0,1,.032.55A4.822,4.822,0,0,1,58.732,69.059Zm-2.843-4.818A2.841,2.841,0,1,0,58.732,61.4,2.844,2.844,0,0,0,55.889,64.242Zm2.843-4.82a4.824,4.824,0,0,1,4.141,2.36l14.01-8.09a4.766,4.766,0,0,1-.62-2.36,4.827,4.827,0,0,1,4.3-4.789V30.316a4.827,4.827,0,0,1-4.3-4.793,4.712,4.712,0,0,1,.242-1.5L62.316,15.834a4.815,4.815,0,0,1-7.174,0L40.957,24.025A4.823,4.823,0,0,1,36.9,30.316V46.542a4.82,4.82,0,0,1,3.679,7.149l14.01,8.09a4.822,4.822,0,0,1,4.143-2.36Zm19.509-8.09a2.841,2.841,0,1,0,2.843-2.839A2.845,2.845,0,0,0,78.242,51.331Zm-44.7,0a2.841,2.841,0,1,0,2.843-2.839A2.845,2.845,0,0,0,33.537,51.331Zm44.7-25.808a2.841,2.841,0,1,0,2.843-2.839A2.845,2.845,0,0,0,78.242,25.523Zm-44.7,0a2.841,2.841,0,1,0,2.843-2.839A2.845,2.845,0,0,0,33.537,25.523ZM55.889,12.616a2.841,2.841,0,1,0,2.843-2.839A2.845,2.845,0,0,0,55.889,12.616Z" transform="translate(-31.56 -7.8)" fill="#0b0b0a"/>
        <path id="Path_1049590" data-name="Path 1049590" d="M148.662,134.712H135.1a1.975,1.975,0,0,1-1-.273,2,2,0,0,1-1,.273H119.538a1.993,1.993,0,0,1-1.988-1.992v-3.21a5.67,5.67,0,0,1,4.652-5.339,5.594,5.594,0,0,1,4.117-9.386,5.2,5.2,0,0,1,.752.053,6.347,6.347,0,0,1,2.91-1.513,5.6,5.6,0,1,1,8.237,0,6.324,6.324,0,0,1,2.91,1.513,5.432,5.432,0,0,1,.752-.053A5.594,5.594,0,0,1,146,124.172a5.669,5.669,0,0,1,4.652,5.339v3.21A1.993,1.993,0,0,1,148.662,134.712Zm-13.573-1.992.014.014h13.559l.01-.01v-3.213c0-1.946-1.876-3.528-4.18-3.528h-5.219c-2.307,0-4.183,1.582-4.183,3.528Zm-15.561,0,.011.014H133.1l.01-.01v-3.213c0-1.946-1.876-3.528-4.18-3.528h-5.219c-2.307,0-4.183,1.582-4.183,3.528Zm10.909-8.549a6.2,6.2,0,0,1,3.665,2.349,6.191,6.191,0,0,1,3.662-2.349c-.091-.1-.175-.2-.259-.305H130.7c-.082.1-.169.206-.259.305Zm7.824-3.788a3.62,3.62,0,1,0,3.62-3.62A3.624,3.624,0,0,0,138.261,120.384Zm-15.561,0a3.62,3.62,0,1,0,3.62-3.62A3.624,3.624,0,0,0,122.7,120.384Zm9.012,1.505h4.778a5.592,5.592,0,0,1,2.4-6.232,4.69,4.69,0,0,0-2.177-.521h-5.217a4.694,4.694,0,0,0-2.181.521,5.6,5.6,0,0,1,2.6,4.726A5.665,5.665,0,0,1,131.712,121.889Zm-1.233-12.351a3.622,3.622,0,1,0,3.623-3.62A3.623,3.623,0,0,0,130.479,109.538Z" transform="translate(-106.93 -92.067)" fill="#0b0b0a"/>
      </g>
    </g>
  </g>
</svg>
