<svg xmlns="http://www.w3.org/2000/svg" width="82.001" height="82.001" viewBox="0 0 82.001 82.001">
  <g id="Group_1200298" data-name="Group 1200298" transform="translate(0 0)">
    <g id="Group_1187152" data-name="Group 1187152" transform="translate(0 0)">
      <g id="Group_1185946" data-name="Group 1185946" transform="translate(0)">
        <g id="Group_1184280" data-name="Group 1184280" transform="translate(0)">
          <g id="Group_1182168" data-name="Group 1182168" transform="translate(0)">
            <g id="Group_1178877" data-name="Group 1178877" transform="translate(0)">
              <g id="Group_1111311" data-name="Group 1111311" transform="translate(0)">
                <g id="Group_1098742" data-name="Group 1098742" transform="translate(0)">
                  <g id="Rectangle_400898" data-name="Rectangle 400898" transform="translate(0)" fill="#fff" stroke="#fa840e" stroke-width="1" opacity="0.859">
                    <rect width="82.001" height="82.001" rx="41" stroke="none"/>
                    <rect x="0.5" y="0.5" width="81.001" height="81.001" rx="40.5" fill="none"/>
                  </g>
                  <g id="Rectangle_400907" data-name="Rectangle 400907" transform="translate(0)" fill="none" stroke="#fa840e" stroke-width="1">
                    <rect width="82.001" height="82.001" rx="41" stroke="none"/>
                    <rect x="0.5" y="0.5" width="81.001" height="81.001" rx="40.5" fill="none"/>
                  </g>
                </g>
              </g>
            </g>
          </g>
        </g>
      </g>
    </g>
    <g id="chicken_2524620" transform="translate(15.485 15.035)">
      <g id="Group_1200323" data-name="Group 1200323" transform="translate(0.008)">
        <g id="Group_1200318" data-name="Group 1200318">
          <g id="Group_1200302" data-name="Group 1200302" transform="translate(0.646 10.934)">
            <g id="Group_1200300" data-name="Group 1200300" transform="translate(0)">
              <path id="Path_1241298" data-name="Path 1241298" d="M6,103.722l1.016.114a5.248,5.248,0,0,1,3.931,2.536l.928-6.1Z" transform="translate(-6 -100.274)" fill="#f95a66"/>
            </g>
            <g id="Group_1200301" data-name="Group 1200301" transform="translate(0 2.542)">
              <path id="Path_1241299" data-name="Path 1241299" d="M7.888,123.621l-.344-.038L6,124.489l1.016.114a5.248,5.248,0,0,1,3.931,2.536l.273-1.8A5.249,5.249,0,0,0,7.888,123.621Z" transform="translate(-6 -123.583)" fill="#ed3252"/>
            </g>
          </g>
          <g id="Group_1200305" data-name="Group 1200305" transform="translate(7.846 0.654)">
            <g id="Group_1200303" data-name="Group 1200303" transform="translate(0)">
              <path id="Path_1241300" data-name="Path 1241300" d="M72.72,7.856c.683-.4,1.7,0,2.637.922C75.636,7.163,76.413,6,77.329,6S79.022,7.163,79.3,8.778c.934-.922,1.954-1.321,2.637-.922,1,.582.9,2.639-.22,4.6s-2.83,3.072-3.826,2.491a1.311,1.311,0,0,1-.563-.749,1.311,1.311,0,0,1-.563.749c-1,.582-2.709-.534-3.826-2.491s-1.216-4.015-.22-4.6Z" transform="translate(-72.033 -6)" fill="#f95a66"/>
            </g>
            <g id="Group_1200304" data-name="Group 1200304" transform="translate(0 1.702)">
              <path id="Path_1241301" data-name="Path 1241301" d="M74.9,26.363c-1.013-1.775-1.188-3.633-.469-4.4a1.706,1.706,0,0,0-1.713-.2c-1,.582-.9,2.64.22,4.6s2.83,3.072,3.826,2.491a1.1,1.1,0,0,0,.248-.2A6.256,6.256,0,0,1,74.9,26.363Z" transform="translate(-72.033 -21.613)" fill="#ed3252"/>
            </g>
          </g>
          <g id="Group_1200314" data-name="Group 1200314" transform="translate(5.369 7.236)">
            <g id="Group_1200306" data-name="Group 1200306" transform="translate(0)">
              <path id="Path_1241302" data-name="Path 1241302" d="M94.313,81.715c0-1.486-1.274-2.792-3.2-3.54,1.669-1.747,2.333-3.793,1.5-5.237-.82-1.417-2.867-1.874-5.166-1.353.249-1.948-.257-3.61-1.5-4.329-2.017-1.162-5.206.583-7.124,3.9A10.145,10.145,0,0,0,77.477,75.1c-13.966,1.412-11.6-8.738-20.347-8.738a7.875,7.875,0,0,0-.039,15.749v.08a15.981,15.981,0,0,0,16,15.961,15.316,15.316,0,0,0,13.6-7.208A18.459,18.459,0,0,0,89,85.8C92.047,85.359,94.313,83.7,94.313,81.715Z" transform="translate(-49.313 -66.358)" fill="#e9fffb"/>
            </g>
            <g id="Group_1200308" data-name="Group 1200308" transform="translate(0 1.72)">
              <g id="Group_1200307" data-name="Group 1200307">
                <path id="Path_1241303" data-name="Path 1241303" d="M74.618,110.564A15.984,15.984,0,0,1,58.643,95.51a1.093,1.093,0,0,0-.9-1.019c-2.1-.363-7.2-1.864-6.9-7.843a8.554,8.554,0,0,1,1.418-4.52,7.885,7.885,0,0,0,4.834,14.03v.08a15.981,15.981,0,0,0,16,15.961,15.276,15.276,0,0,0,12.486-5.669A15.468,15.468,0,0,1,74.618,110.564Z" transform="translate(-49.313 -82.128)" fill="#fff"/>
              </g>
            </g>
            <g id="Group_1200309" data-name="Group 1200309" transform="translate(30.372 13.742)">
              <ellipse id="Ellipse_11500" data-name="Ellipse 11500" cx="0.765" cy="0.766" rx="0.765" ry="0.766" fill="#333"/>
            </g>
            <g id="Group_1200310" data-name="Group 1200310" transform="translate(9.689 23.09)">
              <ellipse id="Ellipse_11501" data-name="Ellipse 11501" cx="0.765" cy="0.766" rx="0.765" ry="0.766" fill="#333"/>
            </g>
            <g id="Group_1200311" data-name="Group 1200311" transform="translate(36.445 14.706)">
              <path id="Path_1241304" data-name="Path 1241304" d="M384.2,203.684a.654.654,0,0,1-.094-1.3c.282-.041.568-.074.87-.109a6.682,6.682,0,0,0,3.258-.918.654.654,0,0,1,.8,1.036,7.711,7.711,0,0,1-3.907,1.182c-.292.034-.568.066-.832.1A.642.642,0,0,1,384.2,203.684Z" transform="translate(-383.542 -201.219)" fill="#333"/>
            </g>
            <g id="Group_1200312" data-name="Group 1200312" transform="translate(30.482 3.239)">
              <path id="Path_1241305" data-name="Path 1241305" d="M329.515,105.2a.687.687,0,0,1-.07,0,.654.654,0,0,1-.582-.72l.012-.113c.307-2.9.729-6.883,4.159-8.257a.654.654,0,1,1,.487,1.215c-2.7,1.081-3.057,4.463-3.344,7.18l-.012.114A.654.654,0,0,1,329.515,105.2Z" transform="translate(-328.86 -96.064)" fill="#333"/>
            </g>
            <g id="Group_1200313" data-name="Group 1200313" transform="translate(3.805 4.628)">
              <ellipse id="Ellipse_11502" data-name="Ellipse 11502" cx="0.899" cy="1.097" rx="0.899" ry="1.097" fill="#333"/>
            </g>
          </g>
          <g id="Group_1200317" data-name="Group 1200317">
            <g id="Group_1200315" data-name="Group 1200315" transform="translate(1.031 16.939)">
              <path id="Path_1241306" data-name="Path 1241306" d="M14.051,155.339l.087,4.113a2.145,2.145,0,0,1-1.188,1.938,2.307,2.307,0,0,1-3.415-1.85,2.738,2.738,0,0,1,1.414-2.426Z" transform="translate(-9.534 -155.339)" fill="#f95a66"/>
            </g>
            <g id="Group_1200316" data-name="Group 1200316" transform="translate(1.031 17.403)">
              <path id="Path_1241307" data-name="Path 1241307" d="M10.951,163.12a2.738,2.738,0,0,1,1.414-2.426l.872-.5V159.6l-2.29,1.311a2.738,2.738,0,0,0-1.414,2.426,2.3,2.3,0,0,0,3.359,1.877A2.214,2.214,0,0,1,10.951,163.12Z" transform="translate(-9.533 -159.601)" fill="#ed3252"/>
            </g>
            <path id="Path_1241308" data-name="Path 1241308" d="M48.319,18.858c1.467-1.86,1.855-3.852.995-5.341-.843-1.459-2.724-2.125-5.019-1.822A4.41,4.41,0,0,0,42.4,7.583c-2.365-1.365-5.887.455-8.017,4.144A11.08,11.08,0,0,0,33.031,15.4c-7.217.6-9.631-2.075-11.967-4.664a15.329,15.329,0,0,0-3.147-2.885c.917-1.405,2.264-4.727.24-5.909a2.412,2.412,0,0,0-2.584.328C15.1.864,14.229,0,13.218,0s-1.879.864-2.355,2.273a2.412,2.412,0,0,0-2.584-.328C6.2,3.16,7.642,6.568,8.619,8A8.582,8.582,0,0,0,6.174,10.47v-.046L.391,13.818a.659.659,0,0,0,.258,1.215l1.016.114a4.619,4.619,0,0,1,2.99,1.594L2.2,18.147c-1.954,1.119-2.463,4.091-.349,5.343a2.982,2.982,0,0,0,4.517-2.451l-.021-.979a8.461,8.461,0,0,0,6.233,3.6,16.559,16.559,0,0,0,1.016,5.216.654.654,0,0,0,1.228-.453,15.284,15.284,0,0,1-.944-5.309v-.081a.654.654,0,0,0-.651-.654,7.207,7.207,0,0,1-7.052-6.2V14.1a7.2,7.2,0,0,1,7.088-6.2c3.481,0,5.033,1.72,6.831,3.711C22.3,14.061,24.767,16.8,31.077,16.8a25.851,25.851,0,0,0,2.6-.139.654.654,0,0,0,.585-.582,9.5,9.5,0,0,1,1.261-3.694c1.7-2.952,4.558-4.63,6.23-3.665.964.556,1.406,1.935,1.182,3.689a.66.66,0,0,0,.794.721c2.068-.47,3.817-.06,4.455,1.045.654,1.133.1,2.887-1.405,4.469a.66.66,0,0,0,.236,1.061c1.714.669,2.779,1.795,2.779,2.938,0,1.6-2,3.048-4.755,3.45a.654.654,0,0,0,.189,1.295c3.459-.505,5.875-2.456,5.875-4.745,0-1.5-1.023-2.869-2.78-3.782ZM2.658,14,5.2,12.511a8.574,8.574,0,0,0-.41,2.558A5.949,5.949,0,0,0,2.658,14Zm1.563,8.4c-2.132,1.108-3.35-2-1.374-3.127l2.146-1.229.064,3.012A1.491,1.491,0,0,1,4.221,22.409ZM17.04,6.783c-.092.161-.19.313-.291.462a8.888,8.888,0,0,0-6.982.115c-.129-.183-.254-.376-.369-.578-1.039-1.82-.965-3.411-.458-3.707.375-.219,1.135.119,1.848.823a.66.66,0,0,0,1.1-.355c.241-1.4.864-2.235,1.327-2.235s1.086.836,1.327,2.235a.66.66,0,0,0,1.1.355c.713-.7,1.473-1.042,1.848-.823.507.3.581,1.888-.458,3.707Z" transform="translate(-0.076)" fill="#333"/>
          </g>
        </g>
        <g id="Group_1200322" data-name="Group 1200322" transform="translate(18.292 18.874)">
          <g id="Group_1200319" data-name="Group 1200319">
            <path id="Path_1241309" data-name="Path 1241309" d="M168.581,181.582a5.675,5.675,0,0,1,4.1-8.45c4.9-.694,10.427,6.834,16.124,7.351a13.2,13.2,0,0,1-3.155,4.284c-2.891,2.582-6.246,3.3-10.257,2.183A11.243,11.243,0,0,1,168.581,181.582Z" transform="translate(-167.83 -173.087)" fill="#e9fffb"/>
          </g>
          <g id="Group_1200320" data-name="Group 1200320" transform="translate(0 0.936)">
            <path id="Path_1241310" data-name="Path 1241310" d="M176.919,193.067a11.243,11.243,0,0,1-6.81-5.368,5.732,5.732,0,0,1,.226-6.033,5.713,5.713,0,0,0-1.753,7.56,11.243,11.243,0,0,0,6.81,5.368c4.012,1.113,7.367.4,10.258-2.183a12.718,12.718,0,0,0,1.243-1.281C184.067,193.511,180.8,194.144,176.919,193.067Z" transform="translate(-167.833 -181.666)" fill="#d2f7f0"/>
          </g>
          <g id="Group_1200321" data-name="Group 1200321" transform="translate(9.242 8.78)">
            <path id="Path_1241311" data-name="Path 1241311" d="M254.333,256.872a9.219,9.219,0,0,1-1.176-.078.654.654,0,0,1,.166-1.3,6.312,6.312,0,0,0,5.395-1.721.654.654,0,0,1,.872.976A7.6,7.6,0,0,1,254.333,256.872Z" transform="translate(-252.586 -253.609)" fill="#333"/>
          </g>
        </g>
      </g>
      <g id="Group_1200337" data-name="Group 1200337" transform="translate(3.448 29.931)">
        <g id="Group_1200333" data-name="Group 1200333">
          <g id="Group_1200324" data-name="Group 1200324" transform="translate(0)">
            <path id="Path_1241312" data-name="Path 1241312" d="M39.228,277.975a3.831,3.831,0,1,0-3.806,4.474v.041a7.942,7.942,0,0,0,7.814,8.064,7.426,7.426,0,0,0,6.644-3.642,9.8,9.8,0,0,0,1.257-7.124l-.087-.434-.145.109a6.1,6.1,0,0,1-7.023.246,4.787,4.787,0,0,0-4.589-.355Z" transform="translate(-31.623 -274.493)" fill="#ffcf57"/>
          </g>
          <g id="Group_1200325" data-name="Group 1200325" transform="translate(0 0.501)">
            <path id="Path_1241313" data-name="Path 1241313" d="M44.435,293.559a7.923,7.923,0,0,1-7.8-7.542.652.652,0,0,0-.526-.6,3.7,3.7,0,0,1-3.289-3.944,4.451,4.451,0,0,1,.763-2.387,4.006,4.006,0,0,0-1.963,3.477,3.9,3.9,0,0,0,3.8,3.978v.041a7.942,7.942,0,0,0,7.814,8.064,7.371,7.371,0,0,0,5.775-2.477A7.584,7.584,0,0,1,44.435,293.559Z" transform="translate(-31.623 -279.09)" fill="#ffb81a"/>
          </g>
          <g id="Group_1200326" data-name="Group 1200326" transform="translate(8.728 4.438)">
            <path id="Path_1241314" data-name="Path 1241314" d="M112.362,320.006a3.637,3.637,0,0,0,2.951,1.62h.108a5.518,5.518,0,0,0,4.067-1.795,6.033,6.033,0,0,0,1.672-3.466,6.1,6.1,0,0,1-5.963-.4,4.806,4.806,0,0,0-2.571-.779,3.657,3.657,0,0,0-.713,1.178A4.012,4.012,0,0,0,112.362,320.006Z" transform="translate(-111.668 -315.192)" fill="#ffeacc"/>
          </g>
          <g id="Group_1200327" data-name="Group 1200327" transform="translate(2.516 2.565)">
            <ellipse id="Ellipse_11503" data-name="Ellipse 11503" cx="0.545" cy="0.654" rx="0.545" ry="0.654" fill="#333"/>
          </g>
          <g id="Group_1200332" data-name="Group 1200332" transform="translate(6.637 7.146)">
            <g id="Group_1200328" data-name="Group 1200328">
              <circle id="Ellipse_11504" data-name="Ellipse 11504" cx="0.509" cy="0.509" r="0.509" fill="#fff"/>
            </g>
            <g id="Group_1200329" data-name="Group 1200329" transform="translate(1.381 3.218)">
              <circle id="Ellipse_11505" data-name="Ellipse 11505" cx="0.509" cy="0.509" r="0.509" fill="#fff"/>
            </g>
            <g id="Group_1200330" data-name="Group 1200330" transform="translate(4.823 4.876)">
              <circle id="Ellipse_11506" data-name="Ellipse 11506" cx="0.509" cy="0.509" r="0.509" fill="#fff"/>
            </g>
            <g id="Group_1200331" data-name="Group 1200331" transform="translate(10.023 2.709)">
              <circle id="Ellipse_11507" data-name="Ellipse 11507" cx="0.509" cy="0.509" r="0.509" fill="#fff"/>
            </g>
          </g>
        </g>
        <g id="Group_1200336" data-name="Group 1200336" transform="translate(10.254 1.932)">
          <g id="Group_1200334" data-name="Group 1200334">
            <path id="Path_1241315" data-name="Path 1241315" d="M127.808,299.625a2.339,2.339,0,0,1-2-3.207c.688-1.884,4.184-2.29,5.418-4.207a5.742,5.742,0,0,1,.811,2.008,4.427,4.427,0,0,1-1.2,4.1A4.017,4.017,0,0,1,127.808,299.625Z" transform="translate(-125.658 -292.211)" fill="#fd9"/>
          </g>
          <g id="Group_1200335" data-name="Group 1200335" transform="translate(0.648)">
            <path id="Path_1241316" data-name="Path 1241316" d="M137.337,294.219a5.74,5.74,0,0,0-.811-2.008,3.4,3.4,0,0,1-.571.664,5.638,5.638,0,0,1,.182.69,4.427,4.427,0,0,1-1.2,4.1,4.017,4.017,0,0,1-3.028,1.308,2.071,2.071,0,0,1-.3-.029,2.1,2.1,0,0,0,1.5.683,4.017,4.017,0,0,0,3.028-1.308,4.427,4.427,0,0,0,1.2-4.1Z" transform="translate(-131.603 -292.211)" fill="#ffeacc"/>
          </g>
        </g>
      </g>
      <g id="Group_1200351" data-name="Group 1200351" transform="translate(27.762 29.931)">
        <g id="Group_1200347" data-name="Group 1200347">
          <g id="Group_1200338" data-name="Group 1200338">
            <path id="Path_1241317" data-name="Path 1241317" d="M266.71,277.975a3.831,3.831,0,1,1,3.806,4.474v.041a7.942,7.942,0,0,1-7.814,8.064,7.426,7.426,0,0,1-6.644-3.642,9.794,9.794,0,0,1-1.257-7.124l.087-.434.145.109a6.1,6.1,0,0,0,7.023.246,4.787,4.787,0,0,1,4.589-.355Z" transform="translate(-254.603 -274.493)" fill="#ffcf57"/>
          </g>
          <g id="Group_1200339" data-name="Group 1200339" transform="translate(2.325 0.501)">
            <path id="Path_1241318" data-name="Path 1241318" d="M280.5,293.559a7.923,7.923,0,0,0,7.8-7.542.652.652,0,0,1,.526-.6,3.7,3.7,0,0,0,3.289-3.944,4.451,4.451,0,0,0-.763-2.387,4.006,4.006,0,0,1,1.963,3.477,3.9,3.9,0,0,1-3.8,3.978v.041a7.942,7.942,0,0,1-7.814,8.064,7.371,7.371,0,0,1-5.775-2.477A7.584,7.584,0,0,0,280.5,293.559Z" transform="translate(-275.927 -279.09)" fill="#ffb81a"/>
          </g>
          <g id="Group_1200340" data-name="Group 1200340" transform="translate(1.491 4.438)">
            <path id="Path_1241319" data-name="Path 1241319" d="M277.076,320.006a3.637,3.637,0,0,1-2.951,1.62h-.108a5.518,5.518,0,0,1-4.067-1.795,6.033,6.033,0,0,1-1.672-3.466,6.1,6.1,0,0,0,5.963-.4,4.806,4.806,0,0,1,2.571-.779,3.657,3.657,0,0,1,.713,1.178A4.012,4.012,0,0,1,277.076,320.006Z" transform="translate(-268.277 -315.192)" fill="#ffeacc"/>
          </g>
          <g id="Group_1200341" data-name="Group 1200341" transform="translate(16.106 2.565)">
            <ellipse id="Ellipse_11508" data-name="Ellipse 11508" cx="0.545" cy="0.654" rx="0.545" ry="0.654" fill="#333"/>
          </g>
          <g id="Group_1200346" data-name="Group 1200346" transform="translate(2.034 7.146)">
            <g id="Group_1200342" data-name="Group 1200342" transform="translate(10.023)">
              <circle id="Ellipse_11509" data-name="Ellipse 11509" cx="0.509" cy="0.509" r="0.509" fill="#fff"/>
            </g>
            <g id="Group_1200343" data-name="Group 1200343" transform="translate(8.642 3.218)">
              <circle id="Ellipse_11510" data-name="Ellipse 11510" cx="0.509" cy="0.509" r="0.509" fill="#fff"/>
            </g>
            <g id="Group_1200344" data-name="Group 1200344" transform="translate(5.2 4.876)">
              <circle id="Ellipse_11511" data-name="Ellipse 11511" cx="0.509" cy="0.509" r="0.509" fill="#fff"/>
            </g>
            <g id="Group_1200345" data-name="Group 1200345" transform="translate(0 2.709)">
              <circle id="Ellipse_11512" data-name="Ellipse 11512" cx="0.509" cy="0.509" r="0.509" fill="#fff"/>
            </g>
          </g>
        </g>
        <g id="Group_1200350" data-name="Group 1200350" transform="translate(2.977 1.932)">
          <g id="Group_1200348" data-name="Group 1200348" transform="translate(0)">
            <path id="Path_1241320" data-name="Path 1241320" d="M283.209,298.317a4.427,4.427,0,0,1-1.2-4.1,5.741,5.741,0,0,1,.811-2.008c1.234,1.917,4.73,2.324,5.418,4.207a2.339,2.339,0,0,1-2,3.207,4.017,4.017,0,0,1-3.028-1.308Z" transform="translate(-281.906 -292.211)" fill="#fd9"/>
          </g>
          <g id="Group_1200349" data-name="Group 1200349">
            <path id="Path_1241321" data-name="Path 1241321" d="M282,294.219a5.74,5.74,0,0,1,.811-2.008,3.4,3.4,0,0,0,.571.664,5.641,5.641,0,0,0-.182.69,4.427,4.427,0,0,0,1.2,4.1,4.017,4.017,0,0,0,3.028,1.308,2.071,2.071,0,0,0,.3-.029,2.1,2.1,0,0,1-1.5.683,4.017,4.017,0,0,1-3.028-1.308A4.427,4.427,0,0,1,282,294.219Z" transform="translate(-281.906 -292.211)" fill="#ffeacc"/>
          </g>
        </g>
      </g>
      <g id="Group_1200364" data-name="Group 1200364" transform="translate(0 18.218)">
        <g id="Group_1200356" data-name="Group 1200356" transform="translate(2.835 23.654)">
          <g id="Group_1200352" data-name="Group 1200352">
            <path id="Path_1241322" data-name="Path 1241322" d="M43.277,388.724a21.922,21.922,0,0,1,1.9-4.724c-3.412.209-6.437,1.328-7.832,4.281-1.707-2.953-4.42-4.073-7.832-4.281a21.921,21.921,0,0,1,1.9,4.724,8.5,8.5,0,0,0-5.4-2.133,51.836,51.836,0,0,1,3.1,5.915H45.578a51.823,51.823,0,0,1,3.1-5.915A8.5,8.5,0,0,0,43.277,388.724Z" transform="translate(-26 -384)" fill="#77bc4d"/>
          </g>
          <g id="Group_1200353" data-name="Group 1200353">
            <path id="Path_1241323" data-name="Path 1241323" d="M43.277,388.724a21.924,21.924,0,0,1,1.9-4.724c-3.412.209-6.437,1.328-7.832,4.281-1.706-2.953-4.42-4.073-7.832-4.281a21.921,21.921,0,0,1,1.9,4.724A8.5,8.5,0,0,0,26,386.59a51.832,51.832,0,0,1,3.1,5.915h1.949c-.344-.791-1.06-2.257-1.419-2.969a6.577,6.577,0,0,1,.606.484,1.745,1.745,0,0,0,2.835-1.806c-.218-.715-.431-1.348-.634-1.9a6.166,6.166,0,0,1,3.39,2.844,1.745,1.745,0,0,0,3.088-.128,5.276,5.276,0,0,1,3.338-2.755c-.207.566-.425,1.212-.648,1.944a1.745,1.745,0,0,0,2.835,1.806,6.558,6.558,0,0,1,.606-.484c-.359.712-1.357,2.177-1.7,2.969h2.23a51.824,51.824,0,0,1,3.1-5.915A8.505,8.505,0,0,0,43.277,388.724Z" transform="translate(-26 -384)" fill="#479838"/>
          </g>
          <g id="Group_1200354" data-name="Group 1200354" transform="translate(13.905 5.092)">
            <ellipse id="Ellipse_11513" data-name="Ellipse 11513" cx="0.509" cy="0.763" rx="0.509" ry="0.763" fill="#a2d962"/>
          </g>
          <g id="Group_1200355" data-name="Group 1200355" transform="translate(7.759 5.513)">
            <ellipse id="Ellipse_11514" data-name="Ellipse 11514" cx="0.509" cy="0.763" rx="0.509" ry="0.763" fill="#a2d962"/>
          </g>
        </g>
        <g id="Group_1200361" data-name="Group 1200361" transform="translate(25.516 23.654)">
          <g id="Group_1200357" data-name="Group 1200357" transform="translate(0)">
            <path id="Path_1241324" data-name="Path 1241324" d="M251.277,388.724a21.921,21.921,0,0,1,1.9-4.724c-3.412.209-6.437,1.328-7.832,4.281-1.707-2.953-4.42-4.073-7.832-4.281a21.922,21.922,0,0,1,1.9,4.724,8.5,8.5,0,0,0-5.4-2.133,51.838,51.838,0,0,1,3.1,5.915h16.476a51.835,51.835,0,0,1,3.1-5.915A8.5,8.5,0,0,0,251.277,388.724Z" transform="translate(-234 -384)" fill="#77bc4d"/>
          </g>
          <g id="Group_1200358" data-name="Group 1200358">
            <path id="Path_1241325" data-name="Path 1241325" d="M251.276,388.724a21.924,21.924,0,0,1,1.9-4.724c-3.412.209-6.437,1.328-7.832,4.281-1.706-2.953-4.42-4.073-7.832-4.281a21.921,21.921,0,0,1,1.9,4.724,8.505,8.505,0,0,0-5.4-2.133,51.834,51.834,0,0,1,3.1,5.915h1.949c-.344-.791-1.06-2.257-1.419-2.969a6.576,6.576,0,0,1,.606.484,1.745,1.745,0,0,0,2.835-1.806c-.218-.715-.431-1.348-.634-1.9a6.167,6.167,0,0,1,3.39,2.844,1.745,1.745,0,0,0,3.088-.128,5.276,5.276,0,0,1,3.338-2.755c-.207.566-.425,1.212-.648,1.944a1.745,1.745,0,0,0,2.835,1.806,6.559,6.559,0,0,1,.606-.484c-.359.712-1.357,2.177-1.7,2.969h2.23a51.831,51.831,0,0,1,3.1-5.915,8.505,8.505,0,0,0-5.4,2.133Z" transform="translate(-233.999 -384)" fill="#479838"/>
          </g>
          <g id="Group_1200359" data-name="Group 1200359" transform="translate(13.905 5.092)">
            <ellipse id="Ellipse_11515" data-name="Ellipse 11515" cx="0.509" cy="0.763" rx="0.509" ry="0.763" fill="#a2d962"/>
          </g>
          <g id="Group_1200360" data-name="Group 1200360" transform="translate(7.759 5.513)">
            <ellipse id="Ellipse_11516" data-name="Ellipse 11516" cx="0.509" cy="0.763" rx="0.509" ry="0.763" fill="#a2d962"/>
          </g>
        </g>
        <path id="Path_1241326" data-name="Path 1241326" d="M48.157,192.668a9.771,9.771,0,0,0-4.112,1.1,16.924,16.924,0,0,1,1.2-2.7.66.66,0,0,0-.6-1q-.506.031-.984.087a8.845,8.845,0,0,0,.649-2.814,4.565,4.565,0,0,0,3.74-3.731l2.761-1.849-3.253-1.258a4.453,4.453,0,0,0-3.9-2.377,4.533,4.533,0,0,0-4.437,4.059c0,.016,0,.031,0,.047l-.023.5a5.415,5.415,0,0,0-3.186.148c-.65-.406-1.451-.734-2.182-1.142a13.2,13.2,0,0,0,6.042-6.346.66.66,0,0,0-.534-.928c-2.551-.232-5.164-2.03-7.69-3.769-2.97-2.045-5.777-3.977-8.585-3.578a6.392,6.392,0,0,0-4.578,9.417,11.829,11.829,0,0,0,7.206,5.679,13.714,13.714,0,0,0,3.67.535c.276,0,.548-.011.817-.032a5.6,5.6,0,0,0-.073,1.316,5.876,5.876,0,0,1-1.659-.917.66.66,0,0,0-1.035.393,10.76,10.76,0,0,0,1.257,8.035c.076.121.155.239.235.355.206.438.472,1.054.769,1.862a8.678,8.678,0,0,0-8.3,0,16.922,16.922,0,0,1,1.2-2.7,10.518,10.518,0,0,0,.952-7.555.66.66,0,0,0-1.035-.393l-.145.109a5.569,5.569,0,0,1-1.514.809,5.587,5.587,0,0,0-.1-1.441,6.36,6.36,0,0,0-.9-2.238.663.663,0,0,0-1.1,0,6.49,6.49,0,0,1-2.515,1.813c-.438.226-.882.456-1.292.712a5.414,5.414,0,0,0-3.186-.148,4.591,4.591,0,0,0-4.464-4.609,4.452,4.452,0,0,0-3.9,2.377L.109,181.771,2.87,183.62a4.565,4.565,0,0,0,3.74,3.731,8.851,8.851,0,0,0,.642,2.8c-.282-.032-.571-.057-.869-.075a.661.661,0,0,0-.6,1,16.881,16.881,0,0,1,1.2,2.7,9.772,9.772,0,0,0-4.112-1.1.66.66,0,0,0-.6,1,52.914,52.914,0,0,1,2.644,4.914H.654a.654.654,0,1,0,0,1.309H13.818a.654.654,0,1,0,0-1.309H6.363c-.8-1.78-1.691-3.414-2.289-4.454A7.4,7.4,0,0,1,7.8,195.941a.658.658,0,0,0,1.063-.677,30.119,30.119,0,0,0-1.4-3.767,7.655,7.655,0,0,1,6.14,3.843.66.66,0,0,0,1.158-.048c1-2.109,3.051-3.382,6.115-3.8a30.16,30.16,0,0,0-1.4,3.767.658.658,0,0,0,1.063.677,7.4,7.4,0,0,1,3.727-1.813c-.6,1.04-1.49,2.674-2.289,4.454H20.36a.654.654,0,1,0,0,1.309H47.106a.654.654,0,1,0,0-1.309h-1a52.942,52.942,0,0,1,2.644-4.914A.66.66,0,0,0,48.157,192.668ZM14.47,185.154c.272-.744,1.276-1.262,2.338-1.811a10.626,10.626,0,0,0,2.335-1.471,4.072,4.072,0,0,1-.741,4.51c-.858.92-2.835,1.739-3.732.429A1.827,1.827,0,0,1,14.47,185.154Zm-.333,8.6a8.68,8.68,0,0,0-5.314-3.343,7.559,7.559,0,0,1-.921-3.627v-.041a.654.654,0,0,0-.651-.654,3.328,3.328,0,0,1,.016-6.648,3.223,3.223,0,0,1,3.135,2.883l.063,1.354a.66.66,0,0,0,.922.566,4.119,4.119,0,0,1,2.3-.32,3.094,3.094,0,0,0-.1,3.622c1.4,2.043,4.324,1.274,5.769-.275A5.585,5.585,0,0,0,20.5,185.5a6.777,6.777,0,0,0,1.913-.746,9.253,9.253,0,0,1-.843,5.354c-3.5.289-6,1.515-7.433,3.651Zm19.978-10.415c1.063.549,2.067,1.067,2.338,1.811a1.7,1.7,0,0,1-1.4,2.328,3.344,3.344,0,0,1-2.537-1.1,3.765,3.765,0,0,1-1.04-3.526,5.023,5.023,0,0,1,.3-.983A10.625,10.625,0,0,0,34.115,183.343Zm-8.079-2.378a10.53,10.53,0,0,1-6.414-5.057,5.071,5.071,0,0,1,3.619-7.483c2.3-.326,4.905,1.464,7.659,3.36,2.377,1.637,4.827,3.323,7.381,3.855a11.375,11.375,0,0,1-5.692,5.211,3.08,3.08,0,0,1-.39-.484.662.662,0,0,0-1.1,0,6.528,6.528,0,0,0-.524.995,11.341,11.341,0,0,1-4.539-.4ZM29.35,190.1a9.253,9.253,0,0,1-.84-5.345,6.78,6.78,0,0,0,1.913.747,5.052,5.052,0,0,0,4.566,3.291,3.016,3.016,0,0,0,2.692-4.086,2.749,2.749,0,0,0-.445-.777,4.118,4.118,0,0,1,2.3.32.66.66,0,0,0,.922-.566l.063-1.354a3.178,3.178,0,1,1,3.15,3.765.654.654,0,0,0-.651.654v.041a7.558,7.558,0,0,1-.93,3.645,8.26,8.26,0,0,0-5.275,3.326c-1.641-2.223-4.046-3.4-7.467-3.66Zm-5.923,8.484c.754-1.614,1.566-3.079,2.089-3.981.523.9,1.335,2.367,2.089,3.981Zm21.241,0H29.044c-.8-1.78-1.691-3.414-2.289-4.454a7.4,7.4,0,0,1,3.727,1.813.658.658,0,0,0,1.063-.677,30.119,30.119,0,0,0-1.4-3.767,7.655,7.655,0,0,1,6.14,3.843.66.66,0,0,0,1.158-.048c1-2.109,3.051-3.382,6.115-3.8a30.161,30.161,0,0,0-1.4,3.767.658.658,0,0,0,1.063.677,7.4,7.4,0,0,1,3.727-1.813C46.36,195.167,45.467,196.8,44.668,198.582Z" transform="translate(0 -167.077)" fill="#333"/>
        <g id="Group_1200362" data-name="Group 1200362" transform="translate(16.596 31.281)">
          <ellipse id="Ellipse_11517" data-name="Ellipse 11517" cx="0.765" cy="0.766" rx="0.765" ry="0.766" fill="#333"/>
        </g>
        <g id="Group_1200363" data-name="Group 1200363" transform="translate(49.502 31.281)">
          <ellipse id="Ellipse_11518" data-name="Ellipse 11518" cx="0.765" cy="0.766" rx="0.765" ry="0.766" fill="#333"/>
        </g>
      </g>
      <g id="Group_1200365" data-name="Group 1200365" transform="translate(26.606 3.053)">
        <circle id="Ellipse_11519" data-name="Ellipse 11519" cx="2.558" cy="2.558" r="2.558" transform="translate(0.905 0.579)" fill="#fff"/>
        <path id="Path_1241327" data-name="Path 1241327" d="M247.271,34.543a3.271,3.271,0,1,1,3.271-3.271A3.275,3.275,0,0,1,247.271,34.543Zm0-5.234a1.963,1.963,0,1,0,1.963,1.963A1.965,1.965,0,0,0,247.271,29.309Z" transform="translate(-244 -28)" fill="#333"/>
      </g>
    </g>
  </g>
</svg>
