<svg xmlns="http://www.w3.org/2000/svg" width="82.001" height="82.001" viewBox="0 0 82.001 82.001">
  <g id="Group_1200299" data-name="Group 1200299" transform="translate(0 0)">
    <g id="Group_1187152" data-name="Group 1187152" transform="translate(0 0)">
      <g id="Group_1185946" data-name="Group 1185946" transform="translate(0)">
        <g id="Group_1184280" data-name="Group 1184280" transform="translate(0)">
          <g id="Group_1182168" data-name="Group 1182168" transform="translate(0)">
            <g id="Group_1178877" data-name="Group 1178877" transform="translate(0)">
              <g id="Group_1111311" data-name="Group 1111311" transform="translate(0)">
                <g id="Group_1098742" data-name="Group 1098742" transform="translate(0)">
                  <g id="Rectangle_400898" data-name="Rectangle 400898" transform="translate(0)" fill="#fff" stroke="#fa840e" stroke-width="1" opacity="0.859">
                    <rect width="82.001" height="82.001" rx="41" stroke="none"/>
                    <rect x="0.5" y="0.5" width="81.001" height="81.001" rx="40.5" fill="none"/>
                  </g>
                  <g id="Rectangle_400907" data-name="Rectangle 400907" transform="translate(0)" fill="none" stroke="#fa840e" stroke-width="1">
                    <rect width="82.001" height="82.001" rx="41" stroke="none"/>
                    <rect x="0.5" y="0.5" width="81.001" height="81.001" rx="40.5" fill="none"/>
                  </g>
                </g>
              </g>
            </g>
          </g>
        </g>
      </g>
    </g>
    <g id="breakfast_14777940" transform="translate(3.563 3.563)">
      <g id="Layer_x0020_1">
        <path id="Path_1241328" data-name="Path 1241328" d="M2.983,23.51s19.194,2.366,31.239.013L36.909,20l-1.17-8.189-3.51-2.34H29.89L27.55,3.623l-2.34-1.17L21.7,4.793l-1.17,4.679h-2.34l-2.34-5.849-3.51-1.17L10,5.963l-1.17,3.51H5.323l-2.34,3.51-1.17,4.679,1.17,5.849Z" transform="translate(18.074 24.453)" fill="#ffeddf" fill-rule="evenodd"/>
        <g id="Group_1200366" data-name="Group 1200366" transform="translate(11.428 9.359)">
          <path id="Path_1241329" data-name="Path 1241329" d="M9.158,18.909a6.327,6.327,0,0,1-6.322-6.322A14.212,14.212,0,0,1,4.849,6.059C5.93,4.285,7.4,2.965,9.158,2.965s3.227,1.321,4.308,3.1a14.215,14.215,0,0,1,2.012,6.527,6.335,6.335,0,0,1-6.32,6.322ZM6.344,15.4a3.979,3.979,0,0,0,6.795-2.815,11.613,11.613,0,0,0-1.665-5.312C10.786,6.146,9.965,5.3,9.158,5.3s-1.629.841-2.317,1.97a11.61,11.61,0,0,0-1.665,5.312A3.97,3.97,0,0,0,6.344,15.4Z" transform="translate(16.845 20.192)" fill="#212121"/>
          <path id="Path_1241330" data-name="Path 1241330" d="M8.024,18.909A6.327,6.327,0,0,1,1.7,12.587,14.211,14.211,0,0,1,3.714,6.059C4.8,4.286,6.269,2.965,8.024,2.965s3.227,1.321,4.308,3.1a14.215,14.215,0,0,1,2.012,6.527,6.335,6.335,0,0,1-6.32,6.322ZM5.209,15.4A3.979,3.979,0,0,0,12,12.587a11.613,11.613,0,0,0-1.665-5.312C9.651,6.146,8.831,5.3,8.024,5.3S6.4,6.145,5.707,7.275a11.61,11.61,0,0,0-1.665,5.312A3.97,3.97,0,0,0,5.209,15.4Z" transform="translate(5.534 20.192)" fill="#212121"/>
          <path id="Path_1241331" data-name="Path 1241331" d="M10.293,18.909a6.327,6.327,0,0,1-6.322-6.322A14.211,14.211,0,0,1,5.984,6.059c1.081-1.774,2.555-3.095,4.309-3.095S13.52,4.286,14.6,6.06a14.215,14.215,0,0,1,2.012,6.527,6.335,6.335,0,0,1-6.32,6.322ZM7.479,15.4a3.979,3.979,0,0,0,6.795-2.815,11.613,11.613,0,0,0-1.665-5.312C11.921,6.146,11.1,5.3,10.293,5.3s-1.629.841-2.317,1.97a11.61,11.61,0,0,0-1.665,5.312A3.97,3.97,0,0,0,7.479,15.4Z" transform="translate(28.156 20.192)" fill="#212121"/>
          <path id="Path_1241332" data-name="Path 1241332" d="M9.256,16.947a5.971,5.971,0,0,1-1.542-.212L7.1,16.566l-.19-.607a11.988,11.988,0,0,0-1.348-2.933A4.627,4.627,0,0,0,4.091,11.5l-.677-.376.083-.766A13.426,13.426,0,0,1,5.479,4.887c.972-1.468,2.257-2.524,3.777-2.524,1.6,0,2.942,1.173,3.929,2.763a13.107,13.107,0,0,1,1.868,5.829l.016.543-.409.362a6.34,6.34,0,0,0-1.179,1.5,12.248,12.248,0,0,0-1.041,2.3l-.58.667a5.739,5.739,0,0,1-2.6.621Zm-.342-2.354q.157.014.342.014a3.462,3.462,0,0,0,.8-.093,3.564,3.564,0,0,0,.351-.1,14.232,14.232,0,0,1,1.065-2.24,9.363,9.363,0,0,1,1.215-1.64A10.953,10.953,0,0,0,11.2,6.36C10.61,5.407,9.919,4.7,9.256,4.7c-.617,0-1.263.616-1.83,1.473a11.006,11.006,0,0,0-1.5,3.757,7.8,7.8,0,0,1,1.595,1.813,13.9,13.9,0,0,1,1.4,2.848Z" transform="translate(22.599 14.195)" fill="#212121"/>
          <path id="Path_1241333" data-name="Path 1241333" d="M8.165,16.947a5.743,5.743,0,0,1-2.606-.622l-.58-.667a12.248,12.248,0,0,0-1.041-2.3,6.343,6.343,0,0,0-1.179-1.5L2.349,11.5l.016-.542A13.1,13.1,0,0,1,4.234,5.126c.988-1.589,2.329-2.762,3.93-2.762,1.52,0,2.8,1.056,3.776,2.524a13.429,13.429,0,0,1,1.982,5.469l.083.766-.677.376a4.627,4.627,0,0,0-1.47,1.527,11.985,11.985,0,0,0-1.348,2.933l-.19.607-.615.169a5.967,5.967,0,0,1-1.541.212Zm-.8-2.432a3.466,3.466,0,0,0,.8.093q.185,0,.341-.014a13.891,13.891,0,0,1,1.4-2.847,7.794,7.794,0,0,1,1.6-1.813,11.01,11.01,0,0,0-1.5-3.757C9.427,5.319,8.781,4.7,8.165,4.7c-.664,0-1.355.7-1.947,1.657a10.948,10.948,0,0,0-1.485,4.172,9.365,9.365,0,0,1,1.215,1.64,14.232,14.232,0,0,1,1.064,2.24,3.566,3.566,0,0,0,.352.1Z" transform="translate(11.987 14.195)" fill="#212121"/>
          <path id="Path_1241334" data-name="Path 1241334" d="M30.531,5.391l-.011-.033h0v0L31.7,4.977l.274-.992a3.424,3.424,0,0,0,.454.093,3.521,3.521,0,0,0,.467.028,3.473,3.473,0,0,0,.767-.082,3.432,3.432,0,0,0,.723-.25l.58-.114.07,0,1.507.1L36.066,5.2a12.3,12.3,0,0,0-.418,1.58,7.1,7.1,0,0,0-.139,1.3,3.981,3.981,0,1,0,7.962,0,6.1,6.1,0,0,0-.059-.821c-.043-.316-.107-.652-.19-1l-.427-1.772,1.785.351A25.636,25.636,0,0,1,50.438,6.59c1.685.807,2.617,1.817,2.617,3.007,0,2.023-3.14,3.671-8.216,4.7a94.186,94.186,0,0,1-17.791,1.5A94.185,94.185,0,0,1,9.258,14.3C4.182,13.268,1.042,11.62,1.042,9.6c0-1.19.931-2.2,2.614-3.006A25.6,25.6,0,0,1,9.509,4.845l1.783-.351-.426,1.768c-.082.34-.146.677-.19,1a6.1,6.1,0,0,0-.059.82,3.981,3.981,0,1,0,7.962,0,7.1,7.1,0,0,0-.139-1.3,12.3,12.3,0,0,0-.418-1.58l-.478-1.43,1.507-.105.072-.005.58.114a3.432,3.432,0,0,0,.723.25,3.478,3.478,0,0,0,.767.082,3.514,3.514,0,0,0,.466-.028,3.431,3.431,0,0,0,.453-.092l2.063-.568-.637,2.04A11.88,11.88,0,0,0,23.182,6.9a6.9,6.9,0,0,0-.119,1.184,3.981,3.981,0,1,0,7.962,0A6.885,6.885,0,0,0,30.906,6.9a11.913,11.913,0,0,0-.358-1.45l1.12-.349,0-.014-1.123.353,0-.005h0l-.014-.043h0Zm2.808,1.036-.14.009.009.052q.033.185.059.366Q33.3,6.645,33.339,6.427Zm1.683,6.124a6.313,6.313,0,0,1-1.755-3.357,6.312,6.312,0,0,1-1.755,3.352,6.4,6.4,0,0,1-1.072.863c1.828-.051,3.589-.142,5.262-.268a6.365,6.365,0,0,1-.68-.59ZM45.811,8.082A6.286,6.286,0,0,1,44.447,12c3.875-.789,6.268-1.65,6.268-2.4,0-.2-.457-.51-1.282-.905a19.015,19.015,0,0,0-3.648-1.2c.017.208.026.4.026.586ZM18.382,13.14c1.672.127,3.433.218,5.26.269a6.345,6.345,0,0,1-2.821-4.215,6.313,6.313,0,0,1-1.755,3.352,6.4,6.4,0,0,1-.684.594ZM3.382,9.6c0,.749,2.388,1.61,6.254,2.4A6.293,6.293,0,0,1,8.278,8.082c0-.181.009-.377.026-.584A18.987,18.987,0,0,0,4.662,8.693c-.824.395-1.28.707-1.28.9Zm17.368-3.17q.04.218.071.429.026-.177.058-.359l.011-.06Z" transform="translate(-1.042 24.696)" fill="#212121"/>
          <path id="Path_1241335" data-name="Path 1241335" d="M51.747,5.45c-.378.473-.764.935-1.154,1.4-1.463,1.75-2.993,3.579-3.371,5.119A16.907,16.907,0,0,1,39.82,22,24.322,24.322,0,0,1,26.426,25.67,24.322,24.322,0,0,1,13.032,22a16.907,16.907,0,0,1-7.4-10.026c-.378-1.54-1.908-3.37-3.371-5.119-.391-.467-.777-.929-1.154-1.4L2.932,4c.344.431.729.891,1.118,1.356C5.681,7.3,7.386,9.342,7.9,11.423A14.576,14.576,0,0,0,14.3,20.042,22.016,22.016,0,0,0,26.426,23.33a22.016,22.016,0,0,0,12.124-3.288,14.576,14.576,0,0,0,6.405-8.619c.51-2.081,2.215-4.12,3.846-6.07.389-.465.774-.925,1.118-1.356L51.747,5.45Z" transform="translate(-0.419 30.483)" fill="#212121"/>
          <path id="Path_1241336" data-name="Path 1241336" d="M1.042,35.944V26.86a26.007,26.007,0,0,1,52.013,0v9.084h-2.34V26.86a23.667,23.667,0,0,0-47.334,0v9.084H1.042Z" transform="translate(-1.042 -0.853)" fill="#212121"/>
        </g>
        <path id="Path_1241337" data-name="Path 1241337" d="M0,0H74.874V74.874H0Z" fill="none" fill-rule="evenodd"/>
        <path id="Path_1241338" data-name="Path 1241338" d="M21.905,6.47a94.186,94.186,0,0,1-17.791-1.5c-.918-.186-1.773-.392-2.557-.617A10.532,10.532,0,0,1,3.376,7.883,14.576,14.576,0,0,0,9.782,16.5,22.016,22.016,0,0,0,21.905,19.79,22.016,22.016,0,0,0,34.029,16.5a14.576,14.576,0,0,0,6.405-8.619,10.532,10.532,0,0,1,1.818-3.531c-.784.225-1.639.431-2.557.617a94.186,94.186,0,0,1-17.791,1.5Z" transform="translate(15.529 43.381)" fill="#ffd3b3" fill-rule="evenodd"/>
        <path id="Path_1241339" data-name="Path 1241339" d="M6.364,4.374A6.285,6.285,0,0,1,5,8.29a20.781,20.781,0,0,0,5.708-1.738c.133-.162.262-.321.386-.476l.086.068a.455.455,0,0,0,.088-.255c0-.2-.457-.51-1.282-.905a19.015,19.015,0,0,0-3.647-1.2c.017.2.025.4.025.586Z" transform="translate(49.834 37.763)" fill="#b38e85" fill-rule="evenodd"/>
        <path id="Path_1241340" data-name="Path 1241340" d="M6.16,4.375A6.285,6.285,0,0,0,7.523,8.29,20.781,20.781,0,0,1,1.815,6.552c-.133-.162-.262-.321-.386-.476l-.086.068a.455.455,0,0,1-.088-.255c0-.2.457-.51,1.282-.905a19.015,19.015,0,0,1,3.647-1.2c-.017.2-.025.4-.025.586Z" transform="translate(12.512 37.764)" fill="#b38e85" fill-rule="evenodd"/>
      </g>
      <path id="Path_1241341" data-name="Path 1241341" d="M0,0H74.874V74.874H0Z" fill="none" fill-rule="evenodd"/>
    </g>
  </g>
</svg>
