<svg xmlns="http://www.w3.org/2000/svg" width="76.345" height="76.345" viewBox="0 0 76.345 76.345">
  <g id="Group_1200934" data-name="Group 1200934" transform="translate(0)">
    <g id="Group_1187152" data-name="Group 1187152" transform="translate(0)">
      <g id="Group_1185946" data-name="Group 1185946" transform="translate(0)">
        <g id="Group_1184280" data-name="Group 1184280" transform="translate(0)">
          <g id="Group_1182168" data-name="Group 1182168" transform="translate(0)">
            <g id="Group_1178877" data-name="Group 1178877" transform="translate(0)">
              <g id="Group_1111311" data-name="Group 1111311" transform="translate(0)">
                <g id="Group_1098742" data-name="Group 1098742" transform="translate(0 0)">
                  <g id="Rectangle_400898" data-name="Rectangle 400898" transform="translate(0)" fill="#fff" stroke="#fa840e" stroke-width="1" opacity="0.859">
                    <rect width="76.344" height="76.345" rx="38.172" stroke="none"/>
                    <rect x="0.5" y="0.5" width="75.344" height="75.345" rx="37.672" fill="none"/>
                  </g>
                  <g id="Rectangle_400907" data-name="Rectangle 400907" transform="translate(0)" fill="none" stroke="#fa840e" stroke-width="1">
                    <rect width="76.344" height="76.345" rx="38.172" stroke="none"/>
                    <rect x="0.5" y="0.5" width="75.344" height="75.345" rx="37.672" fill="none"/>
                  </g>
                </g>
              </g>
            </g>
          </g>
        </g>
      </g>
    </g>
    <g id="Page-1" transform="translate(12.147 11.146)">
      <g id="_090---Entreprenuerial-Studies" data-name="090---Entreprenuerial-Studies">
        <path id="Shape" d="M18.35,53v1.735a1.74,1.74,0,0,0,1.735,1.735H3.6a2.6,2.6,0,0,1-2.6-2.6V46.93q0-.494.026-.963a12.839,12.839,0,0,1,8.415-11.2l3.7-1.388h.009s0,.963,2.221,1.752a9.1,9.1,0,0,0,4.225.434l1.8,15.7h-1.31A1.74,1.74,0,0,0,18.35,53Z" transform="translate(-0.132 -5.289)" fill="#ef314c"/>
        <path id="Shape-2" data-name="Shape" d="M21.616,51.268h1.31l-1.8-15.7a9.1,9.1,0,0,1-4.225-.434c-2.221-.789-2.221-1.752-2.221-1.752h-.009l-2.112.794a4.931,4.931,0,0,0,1.739.954,9.1,9.1,0,0,0,4.225.434l1.8,15.706h-1.31A1.74,1.74,0,0,0,17.279,53v1.735a1.74,1.74,0,0,0,1.735,1.735h2.6a1.74,1.74,0,0,1-1.735-1.735V53A1.74,1.74,0,0,1,21.616,51.268Z" transform="translate(-1.663 -5.289)" fill="#bb193b"/>
        <path id="Shape-3" data-name="Shape" d="M31.66,14.5v9.872a4.193,4.193,0,0,1-.13,1.05H23.636a6.705,6.705,0,0,0,.607-.625,6.44,6.44,0,0,0,1.18-2.117l.972-2.915a2.624,2.624,0,0,0,0-5.248s-1.319-2.646-3.288-2.646c-7.244,0-8.562-3.288-8.562-3.288a3.51,3.51,0,0,1-2.629,3.288v2.646a2.624,2.624,0,0,0,0,5.248l.972,2.915A6.578,6.578,0,0,0,14.058,24.8a8.915,8.915,0,0,0,1.761,1.535l-.009.009A4.2,4.2,0,0,1,14.2,28.979H11.256A4.6,4.6,0,0,1,6.65,24.373V14.83A12.719,12.719,0,0,1,18.96,2a12.53,12.53,0,0,1,12.7,12.5Z" transform="translate(-0.881 -1.131)" fill="sienna"/>
        <path id="Shape-4" data-name="Shape" d="M14.064,25.8a6.578,6.578,0,0,1-1.171-2.117l-.972-2.915a2.624,2.624,0,1,1,0-5.248V12.878a3.991,3.991,0,0,0,2.03-1.378,4.52,4.52,0,0,1-2-1.909A3.51,3.51,0,0,1,9.319,12.88v2.646a2.624,2.624,0,1,0,0,5.248l.972,2.915a6.577,6.577,0,0,0,1.171,2.117,8.915,8.915,0,0,0,1.761,1.535l-.009.009A4.2,4.2,0,0,1,11.6,29.987h2.6a4.2,4.2,0,0,0,1.614-2.637l.009-.009A8.915,8.915,0,0,1,14.064,25.8Z" transform="translate(-0.887 -2.137)" fill="#783e22"/>
        <path id="Shape-5" data-name="Shape" d="M29.7,5.669A12.46,12.46,0,0,0,20.671,2c-.375.006-.743.036-1.109.075A12.519,12.519,0,0,1,30.768,14.5v9.872a4.193,4.193,0,0,1-.13,1.05h2.6a4.193,4.193,0,0,0,.13-1.05V14.5A12.444,12.444,0,0,0,29.7,5.669Z" transform="translate(-2.592 -1.131)" fill="#783e22"/>
        <rect id="Rectangle-path" width="33.978" height="6.292" rx="2" transform="translate(18.07 45.756)" fill="#7f8e94"/>
        <path id="Shape-6" data-name="Shape" d="M56.6,54H54a1.74,1.74,0,0,1,1.735,1.735V57.47A1.74,1.74,0,0,1,54,59.205h2.6a1.74,1.74,0,0,0,1.735-1.735V55.735A1.74,1.74,0,0,0,56.6,54Z" transform="translate(-7.154 -8.021)" fill="#545c60"/>
        <path id="Shape-7" data-name="Shape" d="M21.446,35.125a9.1,9.1,0,0,1-4.225-.434C15,33.9,15,32.939,15,32.939c.1-.087.2-.156.295-.243H15.3a4.2,4.2,0,0,0,1.614-2.637l.009-.009c.165.121.338.234.512.338a5.876,5.876,0,0,0,2.819,1,3.415,3.415,0,0,0,.859-.121,2.535,2.535,0,0,0-.026.772Z" transform="translate(-1.987 -4.848)" fill="#dfc49c"/>
        <path id="Shape-8" data-name="Shape" d="M29.427,18.152a2.619,2.619,0,0,1-2.629,2.62l-.972,2.915a6.44,6.44,0,0,1-1.18,2.117,6.7,6.7,0,0,1-.607.625H22.972a2.6,2.6,0,0,0-2.559,2.125,3.415,3.415,0,0,1-.859.121,5.876,5.876,0,0,1-2.819-1c-.174-.1-.347-.217-.512-.338A8.915,8.915,0,0,1,14.462,25.8a6.578,6.578,0,0,1-1.171-2.117l-.972-2.915a2.624,2.624,0,0,1,0-5.248V12.878A3.51,3.51,0,0,0,14.948,9.59s1.319,3.288,8.562,3.288c1.969,0,3.288,2.646,3.288,2.646a2.622,2.622,0,0,1,2.629,2.629Z" transform="translate(-1.284 -2.137)" fill="#ffe0b2"/>
        <path id="Shape-9" data-name="Shape" d="M23.683,26.428H24.75a6.705,6.705,0,0,0,.607-.625,6.439,6.439,0,0,0,1.18-2.117l.972-2.915a2.624,2.624,0,0,0,0-5.248s-1.319-2.646-3.288-2.646c-7.244,0-8.562-3.288-8.562-3.288a3.155,3.155,0,0,1-.6,1.909,13.213,13.213,0,0,0,6.558,1.378c1.969,0,3.288,2.646,3.288,2.646a2.624,2.624,0,1,1,0,5.248l-.972,2.915a6.439,6.439,0,0,1-1.18,2.117,6.7,6.7,0,0,1-.607.625Z" transform="translate(-1.995 -2.137)" fill="#dfc49c"/>
        <path id="Shape-10" data-name="Shape" d="M53.213,31.9l-2.16,18.79H24.177l-1.8-15.7L22.017,31.9a2.535,2.535,0,0,1,.026-.772A2.6,2.6,0,0,1,24.6,29H50.628a2.6,2.6,0,0,1,2.585,2.9Z" transform="translate(-2.915 -4.708)" fill="#9e9e9e"/>
        <path id="Shape-11" data-name="Shape" d="M54.6,29H52a2.6,2.6,0,0,1,2.585,2.9l-2.16,18.79h2.6l2.16-18.79A2.6,2.6,0,0,0,54.6,29Z" transform="translate(-6.889 -4.708)" fill="#707070"/>
        <circle id="Oval" cx="4.404" cy="4.404" r="4.404" transform="translate(30.654 31.913)" fill="#f5f5f5"/>
        <g id="Group_1189654" data-name="Group 1189654">
          <path id="Shape-12" data-name="Shape" d="M49.448,46.11h-.337L51.16,28.289a3.47,3.47,0,0,0-3.447-3.866H31.636c0-.061.01-.121.01-.182V14.369A13.4,13.4,0,0,0,18.066,1,13.6,13.6,0,0,0,4.9,14.7v9.543a5.481,5.481,0,0,0,4.31,5.346L9,29.667A13.676,13.676,0,0,0,.026,41.63C.01,41.958,0,42.293,0,42.64v6.94a3.47,3.47,0,0,0,3.47,3.47H49.448a2.6,2.6,0,0,0,2.6-2.6V48.713a2.6,2.6,0,0,0-2.6-2.6Zm-.434-19.369a1.7,1.7,0,0,1,.423,1.347L47.366,46.11H22.035L20.317,31.164v-.007l-.353-3.071a1.7,1.7,0,0,1,.423-1.345,1.742,1.742,0,0,1,1.3-.584H47.713A1.742,1.742,0,0,1,49.014,26.741ZM22.692,24.114c-.087.1-.181.2-.287.309h-.717a3.476,3.476,0,0,0-2.6,1.167,3.431,3.431,0,0,0-.63,1.065c-.066.006-.133.015-.192.015A5.043,5.043,0,0,1,15.9,25.8a8.971,8.971,0,0,1-2.058-1.689,5.694,5.694,0,0,1-1.016-1.837l-.972-2.914a.868.868,0,0,0-.822-.593,1.757,1.757,0,1,1,0-3.513.868.868,0,0,0,.868-.868V12.349a4.534,4.534,0,0,0,2.2-2.029c1.253,1.065,3.663,2.287,8.125,2.287,1.165,0,2.209,1.562,2.516,2.169a.868.868,0,0,0,.776.481,1.757,1.757,0,1,1,0,3.513.868.868,0,0,0-.822.593l-.971,2.912a5.6,5.6,0,0,1-1.031,1.838Zm-7.271,3.41a6.272,6.272,0,0,0,2.832.88l.239,2.075a8.273,8.273,0,0,1-2.969-.454,4.152,4.152,0,0,1-1.411-.75A5.318,5.318,0,0,0,15.422,27.524ZM6.636,24.24V14.7A11.854,11.854,0,0,1,18.091,2.735,11.663,11.663,0,0,1,29.912,14.369V24.24c0,.062-.008.121-.01.182H24.6a7.461,7.461,0,0,0,.763-1.6l.794-2.38a3.492,3.492,0,0,0-.118-6.885c-.533-.868-1.883-2.689-3.817-2.689-6.45,0-7.751-2.732-7.757-2.743a.868.868,0,0,0-1.673.323,2.59,2.59,0,0,1-1.972,2.446.868.868,0,0,0-.657.841v1.888a3.491,3.491,0,0,0,.223,6.815l.795,2.383a7.42,7.42,0,0,0,1.328,2.4,9.282,9.282,0,0,0,1.439,1.329,3.49,3.49,0,0,1-.984,1.431h-2.59A3.744,3.744,0,0,1,6.636,24.24Zm-4.9,25.34V42.64q0-.471.023-.918A11.94,11.94,0,0,1,9.61,31.291l2.969-1.114a5.064,5.064,0,0,0,2.367,1.484,10.046,10.046,0,0,0,3.313.562c.144,0,.286-.023.434-.029l1.6,13.916h-.337a2.6,2.6,0,0,0-2.6,2.6v1.735a2.573,2.573,0,0,0,.16.868h-9.7V41.773a.868.868,0,0,0-1.735,0v9.543H3.47A1.735,1.735,0,0,1,1.735,49.58Zm48.581.868a.868.868,0,0,1-.868.868h-29.5a.868.868,0,0,1-.868-.868V48.713a.868.868,0,0,1,.868-.868h29.5a.868.868,0,0,1,.868.868Z" transform="translate(0 -0.999)"/>
          <path id="Shape-13" data-name="Shape" d="M39.205,47.41A5.205,5.205,0,1,0,34,42.205,5.205,5.205,0,0,0,39.205,47.41Zm0-8.675a3.47,3.47,0,1,1-3.47,3.47A3.47,3.47,0,0,1,39.205,38.735Z" transform="translate(-4.505 -5.768)"/>
        </g>
      </g>
    </g>
  </g>
</svg>
