<svg xmlns="http://www.w3.org/2000/svg" xmlns:xlink="http://www.w3.org/1999/xlink" width="190" height="102.351" viewBox="0 0 190 102.351">
  <defs>
    <clipPath id="clip-path">
      <path id="path11562" d="M0-682.665H74.823v74.824H0Z" transform="translate(0 682.665)"/>
    </clipPath>
  </defs>
  <g id="Group_1201190" data-name="Group 1201190" transform="translate(-1229.757 -400)">
    <rect id="Rectangle_412090" data-name="Rectangle 412090" width="190" height="102.351" transform="translate(1229.757 400)" fill="#e9ece8"/>
    <g id="Group_1201189" data-name="Group 1201189" transform="translate(1287.757 413)">
      <g id="g11556">
        <g id="g11558">
          <g id="g11560" clip-path="url(#clip-path)">
            <g id="g11566" transform="translate(1.991 73.728)">
              <path id="path11568" d="M0,0H70.84" fill="none" stroke="#000" stroke-linecap="round" stroke-miterlimit="10" stroke-width="1.2"/>
            </g>
            <g id="g11570" transform="translate(30.461 60.833)">
              <path id="path11572" d="M-39.78,0l-4.9,12.895" transform="translate(44.677)" fill="none" stroke="#000" stroke-miterlimit="10" stroke-width="1.2"/>
            </g>
            <g id="g11574" transform="translate(25.074 55.773)">
              <path id="path11576" d="M-106.3-66.491l5.522-8.185h-18.608l5.522,8.185a4.562,4.562,0,0,0,7.563,0" transform="translate(119.389 74.676)" fill="#f6a96c"/>
            </g>
            <g id="g11578" transform="translate(25.074 55.773)">
              <path id="path11580" d="M-80.979-66.491-86.5-74.676h-4.446l5.522,8.185a4.565,4.565,0,0,0,6,1.435,4.532,4.532,0,0,1-1.559-1.435" transform="translate(90.948 74.676)" fill="#ea9b58"/>
            </g>
            <g id="g11582" transform="translate(25.074 55.773)">
              <path id="path11584" d="M-106.3-66.491l5.522-8.185h-18.608l5.522,8.185A4.562,4.562,0,0,0-106.3-66.491Z" transform="translate(119.389 74.676)" fill="none" stroke="#000" stroke-linecap="round" stroke-miterlimit="10" stroke-width="1.2"/>
            </g>
            <g id="g11586" transform="translate(38.622 60.833)">
              <path id="path11588" d="M-39.78,0l-4.9,12.895" transform="translate(44.677)" fill="none" stroke="#000" stroke-miterlimit="10" stroke-width="1.2"/>
            </g>
            <g id="g11590" transform="translate(33.235 55.773)">
              <path id="path11592" d="M-106.3-66.491l5.522-8.185h-18.608l5.522,8.185a4.562,4.562,0,0,0,7.563,0" transform="translate(119.388 74.676)" fill="#f6a96c"/>
            </g>
            <g id="g11594" transform="translate(33.236 55.773)">
              <path id="path11596" d="M-81.161-66.491l-5.522-8.185h-4.468l5.522,8.185a4.565,4.565,0,0,0,6.016,1.429,4.532,4.532,0,0,1-1.547-1.429" transform="translate(91.152 74.676)" fill="#ea9b58"/>
            </g>
            <g id="g11598" transform="translate(33.235 55.773)">
              <path id="path11600" d="M-106.3-66.491l5.522-8.185h-18.608l5.522,8.185A4.562,4.562,0,0,0-106.3-66.491Z" transform="translate(119.388 74.676)" fill="none" stroke="#000" stroke-linecap="round" stroke-miterlimit="10" stroke-width="1.2"/>
            </g>
            <g id="g11602" transform="translate(12.296 1.096)">
              <path id="path11604" d="M-125.875-43.456a4.549,4.549,0,0,0-.44-2.869,4.57,4.57,0,0,0-6.155-1.973,4.557,4.557,0,0,0-1.3,1,4.571,4.571,0,0,0-5.116-.638,4.57,4.57,0,0,0-1.973,6.155,4.57,4.57,0,0,0,6.155,1.973,4.563,4.563,0,0,0,1.3-1,4.579,4.579,0,0,0,1.94,1.012,4.549,4.549,0,0,0,.44,2.869,4.57,4.57,0,0,0,6.155,1.973,4.571,4.571,0,0,0,1.973-6.155,4.558,4.558,0,0,0-2.979-2.347" transform="translate(141.369 48.806)" fill="#fd9a01"/>
            </g>
            <g id="g11606" transform="translate(12.296 1.464)">
              <path id="path11608" d="M-40.9-54.114a4.57,4.57,0,0,1,1.8-6.059,4.561,4.561,0,0,0-4.352-.1,4.57,4.57,0,0,0-1.973,6.155,4.57,4.57,0,0,0,6.155,1.973c.058-.03.112-.065.168-.1a4.549,4.549,0,0,1-1.8-1.876" transform="translate(45.936 60.775)" fill="#fb8801"/>
            </g>
            <g id="g11610" transform="translate(12.296 1.096)">
              <path id="path11612" d="M-125.875-43.456a4.549,4.549,0,0,0-.44-2.869,4.57,4.57,0,0,0-6.155-1.973,4.557,4.557,0,0,0-1.3,1,4.571,4.571,0,0,0-5.116-.638,4.57,4.57,0,0,0-1.973,6.155,4.57,4.57,0,0,0,6.155,1.973,4.563,4.563,0,0,0,1.3-1,4.579,4.579,0,0,0,1.94,1.012,4.549,4.549,0,0,0,.44,2.869,4.57,4.57,0,0,0,6.155,1.973,4.571,4.571,0,0,0,1.973-6.155A4.558,4.558,0,0,0-125.875-43.456Z" transform="translate(141.369 48.806)" fill="none" stroke="#000" stroke-linecap="round" stroke-linejoin="round" stroke-miterlimit="10" stroke-width="1.2"/>
            </g>
            <g id="g11614" transform="translate(5.802 13.823)">
              <path id="path11616" d="M-57.8-62.566l-6.7-3.191a.731.731,0,0,1,0-1.319l6.7-3.191Z" transform="translate(64.917 70.268)" fill="#fd9a01"/>
            </g>
            <g id="g11618" transform="translate(5.802 13.823)">
              <path id="path11620" d="M-57.8-62.566l-6.7-3.191a.731.731,0,0,1,0-1.319l6.7-3.191Z" transform="translate(64.917 70.268)" fill="none" stroke="#000" stroke-linecap="round" stroke-linejoin="round" stroke-miterlimit="10" stroke-width="1.2"/>
            </g>
            <g id="g11622" transform="translate(12.016 6.967)">
              <path id="path11624" d="M-318.9-257.245a27.336,27.336,0,0,1-4.995-.458,24.085,24.085,0,0,1-19.571-23.731v0a7.429,7.429,0,0,0-6.912-7.46,7.365,7.365,0,0,0-7.778,7.333v18.124a27.332,27.332,0,0,0,27.2,27.416,27.181,27.181,0,0,0,27-24.308.732.732,0,0,0-1.106-.7,27.046,27.046,0,0,1-13.843,3.786" transform="translate(358.16 288.912)" fill="#fed2a4"/>
            </g>
            <g id="g11626" transform="translate(12.016 6.967)">
              <path id="path11628" d="M-36.608-206.906v-18.124a7.374,7.374,0,0,1,5.09-6.988,7.175,7.175,0,0,0-1.818-.345,7.365,7.365,0,0,0-7.778,7.333v18.124a27.332,27.332,0,0,0,27.2,27.416c.752,0,1.5-.034,2.233-.094a27.364,27.364,0,0,1-24.93-27.322" transform="translate(41.115 232.376)" fill="#ffbd86"/>
            </g>
            <g id="g11630" transform="translate(12.016 6.967)">
              <path id="path11632" d="M-418.756-306.679a27,27,0,0,0,2.658-9.173.732.732,0,0,0-1.106-.7,27.045,27.045,0,0,1-13.843,3.786,27.333,27.333,0,0,1-4.994-.458,24.085,24.085,0,0,1-19.571-23.731v0a7.429,7.429,0,0,0-6.912-7.46,7.365,7.365,0,0,0-7.778,7.333v18.125a27.332,27.332,0,0,0,27.2,27.416,27.134,27.134,0,0,0,21.626-10.75" transform="translate(470.303 344.43)" fill="none" stroke="#000" stroke-linecap="round" stroke-linejoin="round" stroke-miterlimit="10" stroke-width="1.2"/>
            </g>
            <g id="g11634" transform="translate(24.079 30.836)">
              <path id="path11636" d="M-35.633,0a4.388,4.388,0,0,0-4.136,5.841A17.718,17.718,0,0,0-23.045,17.71,17.711,17.711,0,0,0-5.351.756.729.729,0,0,0-6.082,0Z" transform="translate(40.019)" fill="#fd9a01"/>
            </g>
            <g id="g11638" transform="translate(24.079 30.836)">
              <path id="path11640" d="M-56.642-47.452a4.388,4.388,0,0,1,4.136-5.841h-6.723a4.388,4.388,0,0,0-4.136,5.841A17.718,17.718,0,0,0-46.64-35.583a17.8,17.8,0,0,0,3.366-.32A17.737,17.737,0,0,1-56.642-47.452" transform="translate(63.614 53.293)" fill="#fb8801"/>
            </g>
            <g id="g11642" transform="translate(24.079 30.836)">
              <path id="path11644" d="M-116.622,0h-9.97a4.388,4.388,0,0,0-4.136,5.841A17.718,17.718,0,0,0-114,17.71,17.711,17.711,0,0,0-96.31.756.729.729,0,0,0-97.041,0h-14.467" transform="translate(130.978)" fill="none" stroke="#000" stroke-linecap="round" stroke-miterlimit="10" stroke-width="1.2"/>
            </g>
            <g id="g11646" transform="translate(15.735 13.788)">
              <path id="path11648" d="M-17.808-8.9a1.1,1.1,0,0,1-1.1,1.1A1.1,1.1,0,0,1-20-8.9,1.1,1.1,0,0,1-18.9-10a1.1,1.1,0,0,1,1.1,1.1" transform="translate(20 10)"/>
            </g>
            <g id="g11650" transform="translate(5.459 47.611)">
              <path id="path11652" d="M-26.879,0c-1.99,5.525-3.309,15.157-3.309,26.117h6.618c0-10.96-1.318-20.592-3.309-26.117" transform="translate(30.188)" fill="#a2e62e"/>
            </g>
            <g id="g11654" transform="translate(5.459 47.611)">
              <path id="path11656" d="M-26.88,0c-1.99,5.525-3.309,15.157-3.309,26.117h2.245A100.821,100.821,0,0,1-25.758,3.849,36.5,36.5,0,0,0-26.88,0" transform="translate(30.189)" fill="#97d729"/>
            </g>
            <g id="g11658" transform="translate(5.459 47.611)">
              <path id="path11660" d="M-26.879,0c-1.99,5.525-3.309,15.157-3.309,26.117h6.618C-23.57,15.157-24.889,5.525-26.879,0Z" transform="translate(30.188)" fill="none" stroke="#000" stroke-linecap="round" stroke-linejoin="round" stroke-miterlimit="10" stroke-width="1.2"/>
            </g>
            <g id="g11662" transform="translate(11.073 55.411)">
              <path id="path11664" d="M-26.879,0c-1.99,3.875-3.309,10.63-3.309,18.317h6.618c0-7.687-1.318-14.442-3.309-18.317" transform="translate(30.188)" fill="#a2e62e"/>
            </g>
            <g id="g11666" transform="translate(11.073 55.411)">
              <path id="path11668" d="M-26.879,0c-1.99,3.875-3.309,10.63-3.309,18.317h2.226a50.481,50.481,0,0,1,2.2-15.646A20.164,20.164,0,0,0-26.879,0" transform="translate(30.188)" fill="#97d729"/>
            </g>
            <g id="g11670" transform="translate(11.073 55.411)">
              <path id="path11672" d="M-26.879,0c-1.99,3.875-3.309,10.63-3.309,18.317h6.618C-23.57,10.63-24.889,3.875-26.879,0Z" transform="translate(30.188)" fill="none" stroke="#000" stroke-linecap="round" stroke-linejoin="round" stroke-miterlimit="10" stroke-width="1.2"/>
            </g>
            <g id="g11674" transform="translate(16.661 47.612)">
              <path id="path11676" d="M-26.878,0c-1.99,5.525-3.309,15.157-3.309,26.116h6.618c0-10.959-1.318-20.591-3.309-26.116h0" transform="translate(30.187 0.002)" fill="#a2e62e"/>
            </g>
            <g id="g11678" transform="translate(16.661 47.612)">
              <path id="path11680" d="M-26.88,0h0c-1.99,5.525-3.309,15.157-3.309,26.116h2.3A101.172,101.172,0,0,1-25.733,3.953,36.779,36.779,0,0,0-26.88,0" transform="translate(30.189 0.002)" fill="#97d729"/>
            </g>
            <g id="g11682" transform="translate(16.661 47.612)">
              <path id="path11684" d="M-49.848-121.338a63.517,63.517,0,0,0-2.827-14.936h0c-1.99,5.525-3.308,15.157-3.308,26.116h6.617c0-2.075-.047-4.1-.137-6.065" transform="translate(55.984 136.275)" fill="none" stroke="#000" stroke-linecap="round" stroke-linejoin="round" stroke-miterlimit="10" stroke-width="1.2"/>
            </g>
            <g id="g11686" transform="translate(52.17 47.611)">
              <path id="path11688" d="M-26.879,0c-1.99,5.525-3.309,15.157-3.309,26.117h6.618c0-10.96-1.318-20.592-3.309-26.117" transform="translate(30.188)" fill="#a2e62e"/>
            </g>
            <g id="g11690" transform="translate(52.17 47.611)">
              <path id="path11692" d="M-26.88,0c-1.991,5.525-3.309,15.157-3.309,26.117H-28A100.474,100.474,0,0,1-25.783,3.742,36.252,36.252,0,0,0-26.88,0" transform="translate(30.189)" fill="#97d729"/>
            </g>
            <g id="g11694" transform="translate(52.17 47.611)">
              <path id="path11696" d="M-26.879,0c-1.99,5.525-3.309,15.157-3.309,26.117h6.618C-23.57,15.157-24.889,5.525-26.879,0Z" transform="translate(30.188)" fill="none" stroke="#000" stroke-linecap="round" stroke-linejoin="round" stroke-miterlimit="10" stroke-width="1.2"/>
            </g>
            <g id="g11698" transform="translate(57.783 55.411)">
              <path id="path11700" d="M-26.88,0c-1.991,3.875-3.309,10.63-3.309,18.317h6.618C-23.572,10.63-24.89,3.875-26.88,0" transform="translate(30.189)" fill="#a2e62e"/>
            </g>
            <g id="g11702" transform="translate(57.783 55.411)">
              <path id="path11704" d="M-26.88,0c-1.991,3.875-3.309,10.63-3.309,18.317h2.238A50.519,50.519,0,0,1-25.761,2.69,20.2,20.2,0,0,0-26.88,0" transform="translate(30.189)" fill="#97d729"/>
            </g>
            <g id="g11706" transform="translate(57.783 55.411)">
              <path id="path11708" d="M-26.88,0c-1.991,3.875-3.309,10.63-3.309,18.317h6.618C-23.572,10.63-24.89,3.875-26.88,0Z" transform="translate(30.189)" fill="none" stroke="#000" stroke-linecap="round" stroke-linejoin="round" stroke-miterlimit="10" stroke-width="1.2"/>
            </g>
            <g id="g11710" transform="translate(63.372 47.612)">
              <path id="path11712" d="M-26.878,0c-1.99,5.525-3.309,15.157-3.309,26.116h6.618c0-10.959-1.318-20.591-3.309-26.116Z" transform="translate(30.187)" fill="#a2e62e"/>
            </g>
            <g id="g11714" transform="translate(63.372 47.612)">
              <path id="path11716" d="M-26.882,0h0c-1.99,5.525-3.309,15.157-3.309,26.116h2.2A100.528,100.528,0,0,1-25.78,3.762,36.267,36.267,0,0,0-26.882,0" transform="translate(30.191)" fill="#97d729"/>
            </g>
            <g id="g11718" transform="translate(63.372 47.612)">
              <path id="path11720" d="M-26.878,0c-1.99,5.525-3.309,15.157-3.309,26.116h6.618c0-10.959-1.318-20.591-3.309-26.116Z" transform="translate(30.187)" fill="none" stroke="#000" stroke-linecap="round" stroke-linejoin="round" stroke-miterlimit="10" stroke-width="1.2"/>
            </g>
            <g id="g11722" transform="translate(47.787 35.804)">
              <path id="path11724" d="M0,0H9.937" transform="translate(0)" fill="none" stroke="#000" stroke-linecap="round" stroke-miterlimit="10" stroke-width="1.2"/>
            </g>
            <g id="g11726" transform="translate(47.057 40.627)">
              <path id="path11728" d="M0,0H8.622" transform="translate(0)" fill="none" stroke="#000" stroke-linecap="round" stroke-miterlimit="10" stroke-width="1.2"/>
            </g>
          </g>
        </g>
      </g>
    </g>
  </g>
</svg>
