<svg xmlns="http://www.w3.org/2000/svg" xmlns:xlink="http://www.w3.org/1999/xlink" width="76.345" height="76.345" viewBox="0 0 76.345 76.345">
  <defs>
    <clipPath id="clip-path">
      <path id="path11562" d="M64.965-682.665H0V-617.7H64.965Z" transform="translate(0 682.665)"/>
    </clipPath>
  </defs>
  <g id="Group_1200666" data-name="Group 1200666" transform="translate(0)">
    <g id="Group_1187152" data-name="Group 1187152" transform="translate(0)">
      <g id="Group_1185946" data-name="Group 1185946" transform="translate(0)">
        <g id="Group_1184280" data-name="Group 1184280" transform="translate(0)">
          <g id="Group_1182168" data-name="Group 1182168" transform="translate(0)">
            <g id="Group_1178877" data-name="Group 1178877" transform="translate(0)">
              <g id="Group_1111311" data-name="Group 1111311" transform="translate(0)">
                <g id="Group_1098742" data-name="Group 1098742" transform="translate(0 0)">
                  <g id="Rectangle_400898" data-name="Rectangle 400898" transform="translate(0)" fill="#fff" stroke="#fa840e" stroke-width="1" opacity="0.859">
                    <rect width="76.344" height="76.345" rx="38.172" stroke="none"/>
                    <rect x="0.5" y="0.5" width="75.344" height="75.345" rx="37.672" fill="none"/>
                  </g>
                  <g id="Rectangle_400907" data-name="Rectangle 400907" transform="translate(0)" fill="none" stroke="#fa840e" stroke-width="1">
                    <rect width="76.344" height="76.345" rx="38.172" stroke="none"/>
                    <rect x="0.5" y="0.5" width="75.344" height="75.345" rx="37.672" fill="none"/>
                  </g>
                </g>
              </g>
            </g>
          </g>
        </g>
      </g>
    </g>
    <g id="g11556" transform="translate(5.689 6.095)">
      <g id="g11558">
        <g id="g11560" clip-path="url(#clip-path)">
          <g id="g11566" transform="translate(1.729 64.013)">
            <path id="path11568" d="M61.507,0H0" fill="none" stroke="#000" stroke-linecap="round" stroke-miterlimit="10" stroke-width="1.2"/>
          </g>
          <g id="g11570" transform="translate(34.266 52.817)">
            <path id="path11572" d="M-44.677,0l4.252,11.2" transform="translate(44.677)" fill="none" stroke="#000" stroke-miterlimit="10" stroke-width="1.2"/>
          </g>
          <g id="g11574" transform="translate(27.038 48.424)">
            <path id="path11576" d="M-114.594-67.569l-4.795-7.106h16.156l-4.795,7.106a3.961,3.961,0,0,1-6.567,0" transform="translate(119.389 74.676)" fill="#f6a96c"/>
          </g>
          <g id="g11578" transform="translate(33.186 48.424)">
            <path id="path11580" d="M-89.595-67.569l4.795-7.106h3.86l-4.795,7.106a3.963,3.963,0,0,1-5.213,1.246,3.935,3.935,0,0,0,1.353-1.246" transform="translate(90.948 74.676)" fill="#ea9b58"/>
          </g>
          <g id="g11582" transform="translate(27.038 48.424)">
            <path id="path11584" d="M-114.594-67.569l-4.795-7.106h16.156l-4.795,7.106A3.961,3.961,0,0,1-114.594-67.569Z" transform="translate(119.389 74.676)" fill="none" stroke="#000" stroke-linecap="round" stroke-miterlimit="10" stroke-width="1.2"/>
          </g>
          <g id="g11586" transform="translate(27.18 52.817)">
            <path id="path11588" d="M-44.677,0l4.252,11.2" transform="translate(44.677)" fill="none" stroke="#000" stroke-miterlimit="10" stroke-width="1.2"/>
          </g>
          <g id="g11590" transform="translate(19.952 48.424)">
            <path id="path11592" d="M-114.593-67.569l-4.795-7.106h16.156l-4.795,7.106a3.961,3.961,0,0,1-6.567,0" transform="translate(119.388 74.676)" fill="#f6a96c"/>
          </g>
          <g id="g11594" transform="translate(26.09 48.424)">
            <path id="path11596" d="M-89.808-67.569l4.795-7.106h3.88l-4.795,7.106a3.963,3.963,0,0,1-5.223,1.24,3.935,3.935,0,0,0,1.344-1.24" transform="translate(91.152 74.676)" fill="#ea9b58"/>
          </g>
          <g id="g11598" transform="translate(19.952 48.424)">
            <path id="path11600" d="M-114.593-67.569l-4.795-7.106h16.156l-4.795,7.106A3.961,3.961,0,0,1-114.593-67.569Z" transform="translate(119.388 74.676)" fill="none" stroke="#000" stroke-linecap="round" stroke-miterlimit="10" stroke-width="1.2"/>
          </g>
          <g id="g11602" transform="translate(37.809 0.952)">
            <path id="path11604" d="M-138.342-44.161a3.949,3.949,0,0,1,.382-2.491,3.968,3.968,0,0,1,5.344-1.713,3.957,3.957,0,0,1,1.132.872,3.969,3.969,0,0,1,4.442-.554A3.968,3.968,0,0,1-125.33-42.7a3.968,3.968,0,0,1-5.344,1.713,3.961,3.961,0,0,1-1.132-.872,3.976,3.976,0,0,1-1.684.879,3.949,3.949,0,0,1-.382,2.491,3.968,3.968,0,0,1-5.344,1.713,3.968,3.968,0,0,1-1.713-5.344,3.958,3.958,0,0,1,2.587-2.038" transform="translate(141.369 48.806)" fill="#fd9a01"/>
          </g>
          <g id="g11606" transform="translate(48.357 1.271)">
            <path id="path11608" d="M-44.375-54.992a3.968,3.968,0,0,0-1.561-5.261,3.96,3.96,0,0,1,3.779-.083,3.968,3.968,0,0,1,1.713,5.344,3.968,3.968,0,0,1-5.344,1.713c-.05-.026-.1-.056-.146-.084a3.95,3.95,0,0,0,1.559-1.629" transform="translate(45.936 60.775)" fill="#fb8801"/>
          </g>
          <g id="g11610" transform="translate(37.809 0.952)">
            <path id="path11612" d="M-138.342-44.161a3.949,3.949,0,0,1,.382-2.491,3.968,3.968,0,0,1,5.344-1.713,3.957,3.957,0,0,1,1.132.872,3.969,3.969,0,0,1,4.442-.554A3.968,3.968,0,0,1-125.33-42.7a3.968,3.968,0,0,1-5.344,1.713,3.961,3.961,0,0,1-1.132-.872,3.976,3.976,0,0,1-1.684.879,3.949,3.949,0,0,1-.382,2.491,3.968,3.968,0,0,1-5.344,1.713,3.968,3.968,0,0,1-1.713-5.344A3.958,3.958,0,0,1-138.342-44.161Z" transform="translate(141.369 48.806)" fill="none" stroke="#000" stroke-linecap="round" stroke-linejoin="round" stroke-miterlimit="10" stroke-width="1.2"/>
          </g>
          <g id="g11614" transform="translate(53.749 12.002)">
            <path id="path11616" d="M-64.917-63.581l5.816-2.771a.634.634,0,0,0,0-1.146l-5.816-2.771Z" transform="translate(64.917 70.268)" fill="#fd9a01"/>
          </g>
          <g id="g11618" transform="translate(53.749 12.002)">
            <path id="path11620" d="M-64.917-63.581l5.816-2.771a.634.634,0,0,0,0-1.146l-5.816-2.771Z" transform="translate(64.917 70.268)" fill="none" stroke="#000" stroke-linecap="round" stroke-linejoin="round" stroke-miterlimit="10" stroke-width="1.2"/>
          </g>
          <g id="g11622" transform="translate(7.465 6.049)">
            <path id="path11624" d="M-345.178-261.418a23.731,23.731,0,0,0,4.336-.4,20.912,20.912,0,0,0,16.993-20.6v0a6.45,6.45,0,0,1,6-6.477,6.4,6.4,0,0,1,6.753,6.367V-266.8a23.731,23.731,0,0,1-23.619,23.8,23.6,23.6,0,0,1-23.444-21.1.635.635,0,0,1,.96-.606,23.483,23.483,0,0,0,12.019,3.288" transform="translate(358.16 288.912)" fill="#fed2a4"/>
          </g>
          <g id="g11626" transform="translate(28.974 6.049)">
            <path id="path11628" d="M-19.47-210.262V-226a6.4,6.4,0,0,0-4.419-6.067,6.23,6.23,0,0,1,1.578-.3A6.4,6.4,0,0,1-15.557-226v15.736a23.731,23.731,0,0,1-23.619,23.8c-.653,0-1.3-.029-1.938-.082A23.758,23.758,0,0,0-19.47-210.262" transform="translate(41.115 232.376)" fill="#ffbd86"/>
          </g>
          <g id="g11630" transform="translate(7.465 6.049)">
            <path id="path11632" d="M-467.992-311.653a23.44,23.44,0,0,1-2.307-7.965.635.635,0,0,1,.96-.606,23.482,23.482,0,0,0,12.019,3.287,23.733,23.733,0,0,0,4.336-.4,20.911,20.911,0,0,0,16.993-20.6v0a6.45,6.45,0,0,1,6-6.477,6.394,6.394,0,0,1,6.753,6.366v15.736a23.731,23.731,0,0,1-23.619,23.8,23.559,23.559,0,0,1-18.777-9.334" transform="translate(470.303 344.43)" fill="none" stroke="#000" stroke-linecap="round" stroke-linejoin="round" stroke-miterlimit="10" stroke-width="1.2"/>
          </g>
          <g id="g11634" transform="translate(13.957 26.773)">
            <path id="path11636" d="M-13.726,0a3.81,3.81,0,0,1,3.591,5.072A15.383,15.383,0,0,1-24.656,15.377,15.377,15.377,0,0,1-40.019.656.633.633,0,0,1-39.384,0Z" transform="translate(40.019)" fill="#fd9a01"/>
          </g>
          <g id="g11638" transform="translate(26.399 26.773)">
            <path id="path11640" d="M-52.008-48.222A3.81,3.81,0,0,0-55.6-53.293h5.837a3.81,3.81,0,0,1,3.591,5.072A15.383,15.383,0,0,1-60.692-37.916a15.451,15.451,0,0,1-2.922-.278A15.4,15.4,0,0,0-52.008-48.222" transform="translate(63.614 53.293)" fill="#fb8801"/>
          </g>
          <g id="g11642" transform="translate(13.957 26.773)">
            <path id="path11644" d="M-113.341,0h8.656a3.81,3.81,0,0,1,3.591,5.072,15.383,15.383,0,0,1-14.521,10.305A15.377,15.377,0,0,1-130.978.656.633.633,0,0,1-130.343,0h12.561" transform="translate(130.978)" fill="none" stroke="#000" stroke-linecap="round" stroke-miterlimit="10" stroke-width="1.2"/>
          </g>
          <g id="g11646" transform="translate(49.4 11.971)">
            <path id="path11648" d="M-20-9.048a.952.952,0,0,0,.952.952.952.952,0,0,0,.952-.952A.952.952,0,0,0-19.048-10,.951.951,0,0,0-20-9.048" transform="translate(20 10)"/>
          </g>
          <g id="g11650" transform="translate(54.479 41.338)">
            <path id="path11652" d="M-27.315,0c1.728,4.8,2.873,13.16,2.873,22.675h-5.746C-30.188,13.16-29.043,4.8-27.315,0" transform="translate(30.188)" fill="#a2e62e"/>
          </g>
          <g id="g11654" transform="translate(56.378 41.338)">
            <path id="path11656" d="M-29.215,0c1.728,4.8,2.873,13.16,2.873,22.675h-1.949a87.536,87.536,0,0,0-1.9-19.334A31.691,31.691,0,0,1-29.215,0" transform="translate(30.189)" fill="#97d729"/>
          </g>
          <g id="g11658" transform="translate(54.479 41.338)">
            <path id="path11660" d="M-27.315,0c1.728,4.8,2.873,13.16,2.873,22.675h-5.746C-30.188,13.16-29.043,4.8-27.315,0Z" transform="translate(30.188)" fill="none" stroke="#000" stroke-linecap="round" stroke-linejoin="round" stroke-miterlimit="10" stroke-width="1.2"/>
          </g>
          <g id="g11662" transform="translate(49.605 48.11)">
            <path id="path11664" d="M-27.315,0c1.728,3.364,2.873,9.23,2.873,15.9h-5.746c0-6.674,1.145-12.539,2.873-15.9" transform="translate(30.188)" fill="#a2e62e"/>
          </g>
          <g id="g11666" transform="translate(51.512 48.11)">
            <path id="path11668" d="M-29.222,0c1.728,3.364,2.873,9.23,2.873,15.9h-1.932A43.829,43.829,0,0,0-30.188,2.319,17.507,17.507,0,0,1-29.222,0" transform="translate(30.188)" fill="#97d729"/>
          </g>
          <g id="g11670" transform="translate(49.605 48.11)">
            <path id="path11672" d="M-27.315,0c1.728,3.364,2.873,9.23,2.873,15.9h-5.746C-30.188,9.23-29.043,3.364-27.315,0Z" transform="translate(30.188)" fill="none" stroke="#000" stroke-linecap="round" stroke-linejoin="round" stroke-miterlimit="10" stroke-width="1.2"/>
          </g>
          <g id="g11674" transform="translate(44.753 41.338)">
            <path id="path11676" d="M-27.314,0c1.728,4.8,2.873,13.16,2.873,22.675h-5.746c0-9.515,1.145-17.878,2.873-22.675h0" transform="translate(30.187 0.002)" fill="#a2e62e"/>
          </g>
          <g id="g11678" transform="translate(46.629 41.338)">
            <path id="path11680" d="M-29.193,0h0c1.728,4.8,2.873,13.16,2.873,22.675h-1.993A87.841,87.841,0,0,0-30.189,3.432a31.932,31.932,0,0,1,1-3.434" transform="translate(30.189 0.002)" fill="#97d729"/>
          </g>
          <g id="g11682" transform="translate(44.753 41.338)">
            <path id="path11684" d="M-55.566-123.307a55.148,55.148,0,0,1,2.455-12.968h0c1.728,4.8,2.873,13.16,2.873,22.675h-5.746c0-1.8.041-3.563.119-5.266" transform="translate(55.984 136.275)" fill="none" stroke="#000" stroke-linecap="round" stroke-linejoin="round" stroke-miterlimit="10" stroke-width="1.2"/>
          </g>
          <g id="g11686" transform="translate(13.923 41.338)">
            <path id="path11688" d="M-27.315,0c1.728,4.8,2.873,13.16,2.873,22.675h-5.746C-30.188,13.16-29.043,4.8-27.315,0" transform="translate(30.188)" fill="#a2e62e"/>
          </g>
          <g id="g11690" transform="translate(15.843 41.338)">
            <path id="path11692" d="M-29.237,0c1.728,4.8,2.873,13.16,2.873,22.675h-1.9a87.235,87.235,0,0,0-1.92-19.426A31.475,31.475,0,0,1-29.237,0" transform="translate(30.189)" fill="#97d729"/>
          </g>
          <g id="g11694" transform="translate(13.923 41.338)">
            <path id="path11696" d="M-27.315,0c1.728,4.8,2.873,13.16,2.873,22.675h-5.746C-30.188,13.16-29.043,4.8-27.315,0Z" transform="translate(30.188)" fill="none" stroke="#000" stroke-linecap="round" stroke-linejoin="round" stroke-miterlimit="10" stroke-width="1.2"/>
          </g>
          <g id="g11698" transform="translate(9.049 48.11)">
            <path id="path11700" d="M-27.316,0c1.728,3.364,2.873,9.23,2.873,15.9h-5.746c0-6.674,1.145-12.539,2.873-15.9" transform="translate(30.189)" fill="#a2e62e"/>
          </g>
          <g id="g11702" transform="translate(10.95 48.11)">
            <path id="path11704" d="M-29.218,0c1.728,3.364,2.873,9.23,2.873,15.9h-1.943a43.862,43.862,0,0,0-1.9-13.568A17.54,17.54,0,0,1-29.218,0" transform="translate(30.189)" fill="#97d729"/>
          </g>
          <g id="g11706" transform="translate(9.049 48.11)">
            <path id="path11708" d="M-27.316,0c1.728,3.364,2.873,9.23,2.873,15.9h-5.746C-30.189,9.23-29.045,3.364-27.316,0Z" transform="translate(30.189)" fill="none" stroke="#000" stroke-linecap="round" stroke-linejoin="round" stroke-miterlimit="10" stroke-width="1.2"/>
          </g>
          <g id="g11710" transform="translate(4.197 41.338)">
            <path id="path11712" d="M-27.314,0c1.728,4.8,2.873,13.16,2.873,22.675h-5.746C-30.187,13.16-29.042,4.8-27.314,0Z" transform="translate(30.187)" fill="#a2e62e"/>
          </g>
          <g id="g11714" transform="translate(6.113 41.338)">
            <path id="path11716" d="M-29.234,0h0c1.728,4.8,2.873,13.16,2.873,22.675h-1.913A87.281,87.281,0,0,0-30.191,3.266,31.488,31.488,0,0,1-29.234,0" transform="translate(30.191)" fill="#97d729"/>
          </g>
          <g id="g11718" transform="translate(4.197 41.338)">
            <path id="path11720" d="M-27.314,0c1.728,4.8,2.873,13.16,2.873,22.675h-5.746C-30.187,13.16-29.042,4.8-27.314,0Z" transform="translate(30.187)" fill="none" stroke="#000" stroke-linecap="round" stroke-linejoin="round" stroke-miterlimit="10" stroke-width="1.2"/>
          </g>
          <g id="g11722" transform="translate(14.845 31.087)">
            <path id="path11724" d="M8.628,0H0" transform="translate(0)" fill="none" stroke="#000" stroke-linecap="round" stroke-miterlimit="10" stroke-width="1.2"/>
          </g>
          <g id="g11726" transform="translate(16.622 35.274)">
            <path id="path11728" d="M7.486,0H0" transform="translate(0)" fill="none" stroke="#000" stroke-linecap="round" stroke-miterlimit="10" stroke-width="1.2"/>
          </g>
        </g>
      </g>
    </g>
  </g>
</svg>
